<svg xmlns="http://www.w3.org/2000/svg" width="980" height="320" viewBox="0 0 980 320">
  <rect width="980" height="320" rx="18" fill="#111827" />
  <text x="44" y="24" fill="#f8fafc" font-size="18">Total Loss</text>
  <g><line x1="44" y1="44.00" x2="936" y2="44.00" stroke="#243042" stroke-width="1" /><text x="8" y="48.00" fill="#94a3b8" font-size="11">0.7978</text></g><g><line x1="44" y1="102.00" x2="936" y2="102.00" stroke="#243042" stroke-width="1" /><text x="8" y="106.00" fill="#94a3b8" font-size="11">0.7833</text></g><g><line x1="44" y1="160.00" x2="936" y2="160.00" stroke="#243042" stroke-width="1" /><text x="8" y="164.00" fill="#94a3b8" font-size="11">0.7688</text></g><g><line x1="44" y1="218.00" x2="936" y2="218.00" stroke="#243042" stroke-width="1" /><text x="8" y="222.00" fill="#94a3b8" font-size="11">0.7543</text></g><g><line x1="44" y1="276.00" x2="936" y2="276.00" stroke="#243042" stroke-width="1" /><text x="8" y="280.00" fill="#94a3b8" font-size="11">0.7398</text></g>
  <g><line x1="44.00" y1="276" x2="44.00" y2="44" stroke="#1b2534" stroke-width="1" /><text x="34.00" y="308" fill="#94a3b8" font-size="11">1</text></g><g><line x1="267.00" y1="276" x2="267.00" y2="44" stroke="#1b2534" stroke-width="1" /><text x="257.00" y="308" fill="#94a3b8" font-size="11">2.75</text></g><g><line x1="490.00" y1="276" x2="490.00" y2="44" stroke="#1b2534" stroke-width="1" /><text x="480.00" y="308" fill="#94a3b8" font-size="11">4.5</text></g><g><line x1="713.00" y1="276" x2="713.00" y2="44" stroke="#1b2534" stroke-width="1" /><text x="703.00" y="308" fill="#94a3b8" font-size="11">6.25</text></g><g><line x1="936.00" y1="276" x2="936.00" y2="44" stroke="#1b2534" stroke-width="1" /><text x="926.00" y="308" fill="#94a3b8" font-size="11">8</text></g>
  <rect x="44" y="44" width="892" height="232" fill="none" stroke="#334155" stroke-width="1" />
  <polyline fill="none" stroke="#60a5fa" stroke-width="2.2" points="44.00,44.00 171.43,226.09 298.86,232.62 426.29,239.76 553.71,236.63 681.14,240.50 808.57,250.77 936.00,276.00" />
  <g><rect x="760" y="15" width="12" height="12" fill="#60a5fa" rx="2" /><text x="780" y="24" fill="#cbd5e1" font-size="12">train_total_loss</text></g>
</svg>
