<?xml version="1.0" encoding="utf-8" standalone="no"?>
<!DOCTYPE svg PUBLIC "-//W3C//DTD SVG 1.1//EN"
  "http://www.w3.org/Graphics/SVG/1.1/DTD/svg11.dtd">
<svg xmlns:xlink="http://www.w3.org/1999/xlink" width="720pt" height="432pt" viewBox="0 0 720 432" xmlns="http://www.w3.org/2000/svg" version="1.1">
 <metadata>
  <rdf:RDF xmlns:dc="http://purl.org/dc/elements/1.1/" xmlns:cc="http://creativecommons.org/ns#" xmlns:rdf="http://www.w3.org/1999/02/22-rdf-syntax-ns#">
   <cc:Work>
    <dc:type rdf:resource="http://purl.org/dc/dcmitype/StillImage"/>
    <dc:date>2026-05-17T02:10:40.824001</dc:date>
    <dc:format>image/svg+xml</dc:format>
    <dc:creator>
     <cc:Agent>
      <dc:title>Matplotlib v3.10.9, https://matplotlib.org/</dc:title>
     </cc:Agent>
    </dc:creator>
   </cc:Work>
  </rdf:RDF>
 </metadata>
 <defs>
  <style type="text/css">*{stroke-linejoin: round; stroke-linecap: butt}</style>
 </defs>
 <g id="figure_1">
  <g id="patch_1">
   <path d="M 0 432 
L 720 432 
L 720 0 
L 0 0 
z
" style="fill: #ffffff"/>
  </g>
  <g id="axes_1">
   <g id="patch_2">
    <path d="M 55.997054 390.04 
L 709.2 390.04 
L 709.2 26.88 
L 55.997054 26.88 
z
" style="fill: #ffffff"/>
   </g>
   <g id="patch_3">
    <path d="M 85.688097 27619.274746 
L 116.321713 27619.274746 
L 116.321713 370.099475 
L 85.688097 370.099475 
z
" clip-path="url(#p664a9974f0)" style="fill: #2563eb; opacity: 0.86"/>
   </g>
   <g id="patch_4">
    <path d="M 242.783563 27619.274746 
L 273.417178 27619.274746 
L 273.417178 368.365973 
L 242.783563 368.365973 
z
" clip-path="url(#p664a9974f0)" style="fill: #2563eb; opacity: 0.86"/>
   </g>
   <g id="patch_5">
    <path d="M 399.879028 27619.274746 
L 430.512644 27619.274746 
L 430.512644 369.617118 
L 399.879028 369.617118 
z
" clip-path="url(#p664a9974f0)" style="fill: #2563eb; opacity: 0.86"/>
   </g>
   <g id="patch_6">
    <path d="M 556.974494 27619.274746 
L 587.60811 27619.274746 
L 587.60811 364.895716 
L 556.974494 364.895716 
z
" clip-path="url(#p664a9974f0)" style="fill: #2563eb; opacity: 0.86"/>
   </g>
   <g id="patch_7">
    <path d="M 116.321713 27619.274746 
L 146.955329 27619.274746 
L 146.955329 314.151816 
L 116.321713 314.151816 
z
" clip-path="url(#p664a9974f0)" style="fill: #059669; opacity: 0.86"/>
   </g>
   <g id="patch_8">
    <path d="M 273.417178 27619.274746 
L 304.050794 27619.274746 
L 304.050794 312.563326 
L 273.417178 312.563326 
z
" clip-path="url(#p664a9974f0)" style="fill: #059669; opacity: 0.86"/>
   </g>
   <g id="patch_9">
    <path d="M 430.512644 27619.274746 
L 461.14626 27619.274746 
L 461.14626 313.721726 
L 430.512644 313.721726 
z
" clip-path="url(#p664a9974f0)" style="fill: #059669; opacity: 0.86"/>
   </g>
   <g id="patch_10">
    <path d="M 587.60811 27619.274746 
L 618.241725 27619.274746 
L 618.241725 314.161338 
L 587.60811 314.161338 
z
" clip-path="url(#p664a9974f0)" style="fill: #059669; opacity: 0.86"/>
   </g>
   <g id="patch_11">
    <path d="M 146.955329 27619.274746 
L 177.588944 27619.274746 
L 177.588944 43.387474 
L 146.955329 43.387474 
z
" clip-path="url(#p664a9974f0)" style="fill: #dc2626; opacity: 0.86"/>
   </g>
   <g id="patch_12">
    <path d="M 304.050794 27619.274746 
L 334.68441 27619.274746 
L 334.68441 43.387398 
L 304.050794 43.387398 
z
" clip-path="url(#p664a9974f0)" style="fill: #dc2626; opacity: 0.86"/>
   </g>
   <g id="patch_13">
    <path d="M 461.14626 27619.274746 
L 491.779876 27619.274746 
L 491.779876 43.387467 
L 461.14626 43.387467 
z
" clip-path="url(#p664a9974f0)" style="fill: #dc2626; opacity: 0.86"/>
   </g>
   <g id="patch_14">
    <path d="M 618.241725 27619.274746 
L 648.875341 27619.274746 
L 648.875341 43.387471 
L 618.241725 43.387471 
z
" clip-path="url(#p664a9974f0)" style="fill: #dc2626; opacity: 0.86"/>
   </g>
   <g id="patch_15">
    <path d="M 177.588944 27619.274746 
L 208.22256 27619.274746 
L 208.22256 314.738869 
L 177.588944 314.738869 
z
" clip-path="url(#p664a9974f0)" style="fill: #7c3aed; opacity: 0.86"/>
   </g>
   <g id="patch_16">
    <path d="M 334.68441 27619.274746 
L 365.318026 27619.274746 
L 365.318026 316.692192 
L 334.68441 316.692192 
z
" clip-path="url(#p664a9974f0)" style="fill: #7c3aed; opacity: 0.86"/>
   </g>
   <g id="patch_17">
    <path d="M 491.779876 27619.274746 
L 522.413491 27619.274746 
L 522.413491 316.343894 
L 491.779876 316.343894 
z
" clip-path="url(#p664a9974f0)" style="fill: #7c3aed; opacity: 0.86"/>
   </g>
   <g id="patch_18">
    <path d="M 648.875341 27619.274746 
L 679.508957 27619.274746 
L 679.508957 311.910971 
L 648.875341 311.910971 
z
" clip-path="url(#p664a9974f0)" style="fill: #7c3aed; opacity: 0.86"/>
   </g>
   <g id="matplotlib.axis_1">
    <g id="xtick_1">
     <g id="line2d_1">
      <defs>
       <path id="mf4be58e7c4" d="M 0 0 
L 0 3.5 
" style="stroke: #000000; stroke-width: 0.8"/>
      </defs>
      <g>
       <use xlink:href="#mf4be58e7c4" x="146.955329" y="390.04" style="stroke: #000000; stroke-width: 0.8"/>
      </g>
     </g>
     <g id="text_1">
      <!-- basalt -->
      <g transform="translate(131.699079 404.638438) scale(0.1 -0.1)">
       <defs>
        <path id="DejaVuSans-62" d="M 3116 1747 
Q 3116 2381 2855 2742 
Q 2594 3103 2138 3103 
Q 1681 3103 1420 2742 
Q 1159 2381 1159 1747 
Q 1159 1113 1420 752 
Q 1681 391 2138 391 
Q 2594 391 2855 752 
Q 3116 1113 3116 1747 
z
M 1159 2969 
Q 1341 3281 1617 3432 
Q 1894 3584 2278 3584 
Q 2916 3584 3314 3078 
Q 3713 2572 3713 1747 
Q 3713 922 3314 415 
Q 2916 -91 2278 -91 
Q 1894 -91 1617 61 
Q 1341 213 1159 525 
L 1159 0 
L 581 0 
L 581 4863 
L 1159 4863 
L 1159 2969 
z
" transform="scale(0.015625)"/>
        <path id="DejaVuSans-61" d="M 2194 1759 
Q 1497 1759 1228 1600 
Q 959 1441 959 1056 
Q 959 750 1161 570 
Q 1363 391 1709 391 
Q 2188 391 2477 730 
Q 2766 1069 2766 1631 
L 2766 1759 
L 2194 1759 
z
M 3341 1997 
L 3341 0 
L 2766 0 
L 2766 531 
Q 2569 213 2275 61 
Q 1981 -91 1556 -91 
Q 1019 -91 701 211 
Q 384 513 384 1019 
Q 384 1609 779 1909 
Q 1175 2209 1959 2209 
L 2766 2209 
L 2766 2266 
Q 2766 2663 2505 2880 
Q 2244 3097 1772 3097 
Q 1472 3097 1187 3025 
Q 903 2953 641 2809 
L 641 3341 
Q 956 3463 1253 3523 
Q 1550 3584 1831 3584 
Q 2591 3584 2966 3190 
Q 3341 2797 3341 1997 
z
" transform="scale(0.015625)"/>
        <path id="DejaVuSans-73" d="M 2834 3397 
L 2834 2853 
Q 2591 2978 2328 3040 
Q 2066 3103 1784 3103 
Q 1356 3103 1142 2972 
Q 928 2841 928 2578 
Q 928 2378 1081 2264 
Q 1234 2150 1697 2047 
L 1894 2003 
Q 2506 1872 2764 1633 
Q 3022 1394 3022 966 
Q 3022 478 2636 193 
Q 2250 -91 1575 -91 
Q 1294 -91 989 -36 
Q 684 19 347 128 
L 347 722 
Q 666 556 975 473 
Q 1284 391 1588 391 
Q 1994 391 2212 530 
Q 2431 669 2431 922 
Q 2431 1156 2273 1281 
Q 2116 1406 1581 1522 
L 1381 1569 
Q 847 1681 609 1914 
Q 372 2147 372 2553 
Q 372 3047 722 3315 
Q 1072 3584 1716 3584 
Q 2034 3584 2315 3537 
Q 2597 3491 2834 3397 
z
" transform="scale(0.015625)"/>
        <path id="DejaVuSans-6c" d="M 603 4863 
L 1178 4863 
L 1178 0 
L 603 0 
L 603 4863 
z
" transform="scale(0.015625)"/>
        <path id="DejaVuSans-74" d="M 1172 4494 
L 1172 3500 
L 2356 3500 
L 2356 3053 
L 1172 3053 
L 1172 1153 
Q 1172 725 1289 603 
Q 1406 481 1766 481 
L 2356 481 
L 2356 0 
L 1766 0 
Q 1100 0 847 248 
Q 594 497 594 1153 
L 594 3053 
L 172 3053 
L 172 3500 
L 594 3500 
L 594 4494 
L 1172 4494 
z
" transform="scale(0.015625)"/>
       </defs>
       <use xlink:href="#DejaVuSans-62"/>
       <use xlink:href="#DejaVuSans-61" transform="translate(63.476562 0)"/>
       <use xlink:href="#DejaVuSans-73" transform="translate(124.755859 0)"/>
       <use xlink:href="#DejaVuSans-61" transform="translate(176.855469 0)"/>
       <use xlink:href="#DejaVuSans-6c" transform="translate(238.134766 0)"/>
       <use xlink:href="#DejaVuSans-74" transform="translate(265.917969 0)"/>
      </g>
     </g>
    </g>
    <g id="xtick_2">
     <g id="line2d_2">
      <g>
       <use xlink:href="#mf4be58e7c4" x="304.050794" y="390.04" style="stroke: #000000; stroke-width: 0.8"/>
      </g>
     </g>
     <g id="text_2">
      <!-- sandstone -->
      <g transform="translate(278.169544 404.638438) scale(0.1 -0.1)">
       <defs>
        <path id="DejaVuSans-6e" d="M 3513 2113 
L 3513 0 
L 2938 0 
L 2938 2094 
Q 2938 2591 2744 2837 
Q 2550 3084 2163 3084 
Q 1697 3084 1428 2787 
Q 1159 2491 1159 1978 
L 1159 0 
L 581 0 
L 581 3500 
L 1159 3500 
L 1159 2956 
Q 1366 3272 1645 3428 
Q 1925 3584 2291 3584 
Q 2894 3584 3203 3211 
Q 3513 2838 3513 2113 
z
" transform="scale(0.015625)"/>
        <path id="DejaVuSans-64" d="M 2906 2969 
L 2906 4863 
L 3481 4863 
L 3481 0 
L 2906 0 
L 2906 525 
Q 2725 213 2448 61 
Q 2172 -91 1784 -91 
Q 1150 -91 751 415 
Q 353 922 353 1747 
Q 353 2572 751 3078 
Q 1150 3584 1784 3584 
Q 2172 3584 2448 3432 
Q 2725 3281 2906 2969 
z
M 947 1747 
Q 947 1113 1208 752 
Q 1469 391 1925 391 
Q 2381 391 2643 752 
Q 2906 1113 2906 1747 
Q 2906 2381 2643 2742 
Q 2381 3103 1925 3103 
Q 1469 3103 1208 2742 
Q 947 2381 947 1747 
z
" transform="scale(0.015625)"/>
        <path id="DejaVuSans-6f" d="M 1959 3097 
Q 1497 3097 1228 2736 
Q 959 2375 959 1747 
Q 959 1119 1226 758 
Q 1494 397 1959 397 
Q 2419 397 2687 759 
Q 2956 1122 2956 1747 
Q 2956 2369 2687 2733 
Q 2419 3097 1959 3097 
z
M 1959 3584 
Q 2709 3584 3137 3096 
Q 3566 2609 3566 1747 
Q 3566 888 3137 398 
Q 2709 -91 1959 -91 
Q 1206 -91 779 398 
Q 353 888 353 1747 
Q 353 2609 779 3096 
Q 1206 3584 1959 3584 
z
" transform="scale(0.015625)"/>
        <path id="DejaVuSans-65" d="M 3597 1894 
L 3597 1613 
L 953 1613 
Q 991 1019 1311 708 
Q 1631 397 2203 397 
Q 2534 397 2845 478 
Q 3156 559 3463 722 
L 3463 178 
Q 3153 47 2828 -22 
Q 2503 -91 2169 -91 
Q 1331 -91 842 396 
Q 353 884 353 1716 
Q 353 2575 817 3079 
Q 1281 3584 2069 3584 
Q 2775 3584 3186 3129 
Q 3597 2675 3597 1894 
z
M 3022 2063 
Q 3016 2534 2758 2815 
Q 2500 3097 2075 3097 
Q 1594 3097 1305 2825 
Q 1016 2553 972 2059 
L 3022 2063 
z
" transform="scale(0.015625)"/>
       </defs>
       <use xlink:href="#DejaVuSans-73"/>
       <use xlink:href="#DejaVuSans-61" transform="translate(52.099609 0)"/>
       <use xlink:href="#DejaVuSans-6e" transform="translate(113.378906 0)"/>
       <use xlink:href="#DejaVuSans-64" transform="translate(176.757812 0)"/>
       <use xlink:href="#DejaVuSans-73" transform="translate(240.234375 0)"/>
       <use xlink:href="#DejaVuSans-74" transform="translate(292.333984 0)"/>
       <use xlink:href="#DejaVuSans-6f" transform="translate(331.542969 0)"/>
       <use xlink:href="#DejaVuSans-6e" transform="translate(392.724609 0)"/>
       <use xlink:href="#DejaVuSans-65" transform="translate(456.103516 0)"/>
      </g>
     </g>
    </g>
    <g id="xtick_3">
     <g id="line2d_3">
      <g>
       <use xlink:href="#mf4be58e7c4" x="461.14626" y="390.04" style="stroke: #000000; stroke-width: 0.8"/>
      </g>
     </g>
     <g id="text_3">
      <!-- granite -->
      <g transform="translate(443.257979 404.638438) scale(0.1 -0.1)">
       <defs>
        <path id="DejaVuSans-67" d="M 2906 1791 
Q 2906 2416 2648 2759 
Q 2391 3103 1925 3103 
Q 1463 3103 1205 2759 
Q 947 2416 947 1791 
Q 947 1169 1205 825 
Q 1463 481 1925 481 
Q 2391 481 2648 825 
Q 2906 1169 2906 1791 
z
M 3481 434 
Q 3481 -459 3084 -895 
Q 2688 -1331 1869 -1331 
Q 1566 -1331 1297 -1286 
Q 1028 -1241 775 -1147 
L 775 -588 
Q 1028 -725 1275 -790 
Q 1522 -856 1778 -856 
Q 2344 -856 2625 -561 
Q 2906 -266 2906 331 
L 2906 616 
Q 2728 306 2450 153 
Q 2172 0 1784 0 
Q 1141 0 747 490 
Q 353 981 353 1791 
Q 353 2603 747 3093 
Q 1141 3584 1784 3584 
Q 2172 3584 2450 3431 
Q 2728 3278 2906 2969 
L 2906 3500 
L 3481 3500 
L 3481 434 
z
" transform="scale(0.015625)"/>
        <path id="DejaVuSans-72" d="M 2631 2963 
Q 2534 3019 2420 3045 
Q 2306 3072 2169 3072 
Q 1681 3072 1420 2755 
Q 1159 2438 1159 1844 
L 1159 0 
L 581 0 
L 581 3500 
L 1159 3500 
L 1159 2956 
Q 1341 3275 1631 3429 
Q 1922 3584 2338 3584 
Q 2397 3584 2469 3576 
Q 2541 3569 2628 3553 
L 2631 2963 
z
" transform="scale(0.015625)"/>
        <path id="DejaVuSans-69" d="M 603 3500 
L 1178 3500 
L 1178 0 
L 603 0 
L 603 3500 
z
M 603 4863 
L 1178 4863 
L 1178 4134 
L 603 4134 
L 603 4863 
z
" transform="scale(0.015625)"/>
       </defs>
       <use xlink:href="#DejaVuSans-67"/>
       <use xlink:href="#DejaVuSans-72" transform="translate(63.476562 0)"/>
       <use xlink:href="#DejaVuSans-61" transform="translate(104.589844 0)"/>
       <use xlink:href="#DejaVuSans-6e" transform="translate(165.869141 0)"/>
       <use xlink:href="#DejaVuSans-69" transform="translate(229.248047 0)"/>
       <use xlink:href="#DejaVuSans-74" transform="translate(257.03125 0)"/>
       <use xlink:href="#DejaVuSans-65" transform="translate(296.240234 0)"/>
      </g>
     </g>
    </g>
    <g id="xtick_4">
     <g id="line2d_4">
      <g>
       <use xlink:href="#mf4be58e7c4" x="618.241725" y="390.04" style="stroke: #000000; stroke-width: 0.8"/>
      </g>
     </g>
     <g id="text_4">
      <!-- limestone -->
      <g transform="translate(593.647194 404.638438) scale(0.1 -0.1)">
       <defs>
        <path id="DejaVuSans-6d" d="M 3328 2828 
Q 3544 3216 3844 3400 
Q 4144 3584 4550 3584 
Q 5097 3584 5394 3201 
Q 5691 2819 5691 2113 
L 5691 0 
L 5113 0 
L 5113 2094 
Q 5113 2597 4934 2840 
Q 4756 3084 4391 3084 
Q 3944 3084 3684 2787 
Q 3425 2491 3425 1978 
L 3425 0 
L 2847 0 
L 2847 2094 
Q 2847 2600 2669 2842 
Q 2491 3084 2119 3084 
Q 1678 3084 1418 2786 
Q 1159 2488 1159 1978 
L 1159 0 
L 581 0 
L 581 3500 
L 1159 3500 
L 1159 2956 
Q 1356 3278 1631 3431 
Q 1906 3584 2284 3584 
Q 2666 3584 2933 3390 
Q 3200 3197 3328 2828 
z
" transform="scale(0.015625)"/>
       </defs>
       <use xlink:href="#DejaVuSans-6c"/>
       <use xlink:href="#DejaVuSans-69" transform="translate(27.783203 0)"/>
       <use xlink:href="#DejaVuSans-6d" transform="translate(55.566406 0)"/>
       <use xlink:href="#DejaVuSans-65" transform="translate(152.978516 0)"/>
       <use xlink:href="#DejaVuSans-73" transform="translate(214.501953 0)"/>
       <use xlink:href="#DejaVuSans-74" transform="translate(266.601562 0)"/>
       <use xlink:href="#DejaVuSans-6f" transform="translate(305.810547 0)"/>
       <use xlink:href="#DejaVuSans-6e" transform="translate(366.992188 0)"/>
       <use xlink:href="#DejaVuSans-65" transform="translate(430.371094 0)"/>
      </g>
     </g>
    </g>
    <g id="text_5">
     <!-- Material -->
     <g transform="translate(362.286027 418.316562) scale(0.1 -0.1)">
      <defs>
       <path id="DejaVuSans-4d" d="M 628 4666 
L 1569 4666 
L 2759 1491 
L 3956 4666 
L 4897 4666 
L 4897 0 
L 4281 0 
L 4281 4097 
L 3078 897 
L 2444 897 
L 1241 4097 
L 1241 0 
L 628 0 
L 628 4666 
z
" transform="scale(0.015625)"/>
      </defs>
      <use xlink:href="#DejaVuSans-4d"/>
      <use xlink:href="#DejaVuSans-61" transform="translate(86.279297 0)"/>
      <use xlink:href="#DejaVuSans-74" transform="translate(147.558594 0)"/>
      <use xlink:href="#DejaVuSans-65" transform="translate(186.767578 0)"/>
      <use xlink:href="#DejaVuSans-72" transform="translate(248.291016 0)"/>
      <use xlink:href="#DejaVuSans-69" transform="translate(289.404297 0)"/>
      <use xlink:href="#DejaVuSans-61" transform="translate(317.1875 0)"/>
      <use xlink:href="#DejaVuSans-6c" transform="translate(378.466797 0)"/>
     </g>
    </g>
   </g>
   <g id="matplotlib.axis_2">
    <g id="ytick_1">
     <g id="line2d_5">
      <path d="M 55.997054 347.59799 
L 709.2 347.59799 
" clip-path="url(#p664a9974f0)" style="fill: none; stroke: #b0b0b0; stroke-opacity: 0.28; stroke-width: 0.8; stroke-linecap: square"/>
     </g>
     <g id="line2d_6">
      <defs>
       <path id="m515d4b5410" d="M 0 0 
L -3.5 0 
" style="stroke: #000000; stroke-width: 0.8"/>
      </defs>
      <g>
       <use xlink:href="#m515d4b5410" x="55.997054" y="347.59799" style="stroke: #000000; stroke-width: 0.8"/>
      </g>
     </g>
     <g id="text_6">
      <!-- $\mathdefault{10^{-4}}$ -->
      <g transform="translate(25.497054 351.397209) scale(0.1 -0.1)">
       <defs>
        <path id="DejaVuSans-31" d="M 794 531 
L 1825 531 
L 1825 4091 
L 703 3866 
L 703 4441 
L 1819 4666 
L 2450 4666 
L 2450 531 
L 3481 531 
L 3481 0 
L 794 0 
L 794 531 
z
" transform="scale(0.015625)"/>
        <path id="DejaVuSans-30" d="M 2034 4250 
Q 1547 4250 1301 3770 
Q 1056 3291 1056 2328 
Q 1056 1369 1301 889 
Q 1547 409 2034 409 
Q 2525 409 2770 889 
Q 3016 1369 3016 2328 
Q 3016 3291 2770 3770 
Q 2525 4250 2034 4250 
z
M 2034 4750 
Q 2819 4750 3233 4129 
Q 3647 3509 3647 2328 
Q 3647 1150 3233 529 
Q 2819 -91 2034 -91 
Q 1250 -91 836 529 
Q 422 1150 422 2328 
Q 422 3509 836 4129 
Q 1250 4750 2034 4750 
z
" transform="scale(0.015625)"/>
        <path id="DejaVuSans-2212" d="M 678 2272 
L 4684 2272 
L 4684 1741 
L 678 1741 
L 678 2272 
z
" transform="scale(0.015625)"/>
        <path id="DejaVuSans-34" d="M 2419 4116 
L 825 1625 
L 2419 1625 
L 2419 4116 
z
M 2253 4666 
L 3047 4666 
L 3047 1625 
L 3713 1625 
L 3713 1100 
L 3047 1100 
L 3047 0 
L 2419 0 
L 2419 1100 
L 313 1100 
L 313 1709 
L 2253 4666 
z
" transform="scale(0.015625)"/>
       </defs>
       <use xlink:href="#DejaVuSans-31" transform="translate(0 0.684375)"/>
       <use xlink:href="#DejaVuSans-30" transform="translate(63.623047 0.684375)"/>
       <use xlink:href="#DejaVuSans-2212" transform="translate(128.203125 38.965625) scale(0.7)"/>
       <use xlink:href="#DejaVuSans-34" transform="translate(186.855469 38.965625) scale(0.7)"/>
      </g>
     </g>
    </g>
    <g id="ytick_2">
     <g id="line2d_7">
      <path d="M 55.997054 292.835587 
L 709.2 292.835587 
" clip-path="url(#p664a9974f0)" style="fill: none; stroke: #b0b0b0; stroke-opacity: 0.28; stroke-width: 0.8; stroke-linecap: square"/>
     </g>
     <g id="line2d_8">
      <g>
       <use xlink:href="#m515d4b5410" x="55.997054" y="292.835587" style="stroke: #000000; stroke-width: 0.8"/>
      </g>
     </g>
     <g id="text_7">
      <!-- $\mathdefault{10^{-2}}$ -->
      <g transform="translate(25.497054 296.634806) scale(0.1 -0.1)">
       <defs>
        <path id="DejaVuSans-32" d="M 1228 531 
L 3431 531 
L 3431 0 
L 469 0 
L 469 531 
Q 828 903 1448 1529 
Q 2069 2156 2228 2338 
Q 2531 2678 2651 2914 
Q 2772 3150 2772 3378 
Q 2772 3750 2511 3984 
Q 2250 4219 1831 4219 
Q 1534 4219 1204 4116 
Q 875 4013 500 3803 
L 500 4441 
Q 881 4594 1212 4672 
Q 1544 4750 1819 4750 
Q 2544 4750 2975 4387 
Q 3406 4025 3406 3419 
Q 3406 3131 3298 2873 
Q 3191 2616 2906 2266 
Q 2828 2175 2409 1742 
Q 1991 1309 1228 531 
z
" transform="scale(0.015625)"/>
       </defs>
       <use xlink:href="#DejaVuSans-31" transform="translate(0 0.765625)"/>
       <use xlink:href="#DejaVuSans-30" transform="translate(63.623047 0.765625)"/>
       <use xlink:href="#DejaVuSans-2212" transform="translate(128.203125 39.046875) scale(0.7)"/>
       <use xlink:href="#DejaVuSans-32" transform="translate(186.855469 39.046875) scale(0.7)"/>
      </g>
     </g>
    </g>
    <g id="ytick_3">
     <g id="line2d_9">
      <path d="M 55.997054 238.073184 
L 709.2 238.073184 
" clip-path="url(#p664a9974f0)" style="fill: none; stroke: #b0b0b0; stroke-opacity: 0.28; stroke-width: 0.8; stroke-linecap: square"/>
     </g>
     <g id="line2d_10">
      <g>
       <use xlink:href="#m515d4b5410" x="55.997054" y="238.073184" style="stroke: #000000; stroke-width: 0.8"/>
      </g>
     </g>
     <g id="text_8">
      <!-- $\mathdefault{10^{0}}$ -->
      <g transform="translate(31.397054 241.872403) scale(0.1 -0.1)">
       <use xlink:href="#DejaVuSans-31" transform="translate(0 0.765625)"/>
       <use xlink:href="#DejaVuSans-30" transform="translate(63.623047 0.765625)"/>
       <use xlink:href="#DejaVuSans-30" transform="translate(128.203125 39.046875) scale(0.7)"/>
      </g>
     </g>
    </g>
    <g id="ytick_4">
     <g id="line2d_11">
      <path d="M 55.997054 183.310781 
L 709.2 183.310781 
" clip-path="url(#p664a9974f0)" style="fill: none; stroke: #b0b0b0; stroke-opacity: 0.28; stroke-width: 0.8; stroke-linecap: square"/>
     </g>
     <g id="line2d_12">
      <g>
       <use xlink:href="#m515d4b5410" x="55.997054" y="183.310781" style="stroke: #000000; stroke-width: 0.8"/>
      </g>
     </g>
     <g id="text_9">
      <!-- $\mathdefault{10^{2}}$ -->
      <g transform="translate(31.397054 187.11) scale(0.1 -0.1)">
       <use xlink:href="#DejaVuSans-31" transform="translate(0 0.765625)"/>
       <use xlink:href="#DejaVuSans-30" transform="translate(63.623047 0.765625)"/>
       <use xlink:href="#DejaVuSans-32" transform="translate(128.203125 39.046875) scale(0.7)"/>
      </g>
     </g>
    </g>
    <g id="ytick_5">
     <g id="line2d_13">
      <path d="M 55.997054 128.548378 
L 709.2 128.548378 
" clip-path="url(#p664a9974f0)" style="fill: none; stroke: #b0b0b0; stroke-opacity: 0.28; stroke-width: 0.8; stroke-linecap: square"/>
     </g>
     <g id="line2d_14">
      <g>
       <use xlink:href="#m515d4b5410" x="55.997054" y="128.548378" style="stroke: #000000; stroke-width: 0.8"/>
      </g>
     </g>
     <g id="text_10">
      <!-- $\mathdefault{10^{4}}$ -->
      <g transform="translate(31.397054 132.347597) scale(0.1 -0.1)">
       <use xlink:href="#DejaVuSans-31" transform="translate(0 0.684375)"/>
       <use xlink:href="#DejaVuSans-30" transform="translate(63.623047 0.684375)"/>
       <use xlink:href="#DejaVuSans-34" transform="translate(128.203125 38.965625) scale(0.7)"/>
      </g>
     </g>
    </g>
    <g id="ytick_6">
     <g id="line2d_15">
      <path d="M 55.997054 73.785975 
L 709.2 73.785975 
" clip-path="url(#p664a9974f0)" style="fill: none; stroke: #b0b0b0; stroke-opacity: 0.28; stroke-width: 0.8; stroke-linecap: square"/>
     </g>
     <g id="line2d_16">
      <g>
       <use xlink:href="#m515d4b5410" x="55.997054" y="73.785975" style="stroke: #000000; stroke-width: 0.8"/>
      </g>
     </g>
     <g id="text_11">
      <!-- $\mathdefault{10^{6}}$ -->
      <g transform="translate(31.397054 77.585193) scale(0.1 -0.1)">
       <defs>
        <path id="DejaVuSans-36" d="M 2113 2584 
Q 1688 2584 1439 2293 
Q 1191 2003 1191 1497 
Q 1191 994 1439 701 
Q 1688 409 2113 409 
Q 2538 409 2786 701 
Q 3034 994 3034 1497 
Q 3034 2003 2786 2293 
Q 2538 2584 2113 2584 
z
M 3366 4563 
L 3366 3988 
Q 3128 4100 2886 4159 
Q 2644 4219 2406 4219 
Q 1781 4219 1451 3797 
Q 1122 3375 1075 2522 
Q 1259 2794 1537 2939 
Q 1816 3084 2150 3084 
Q 2853 3084 3261 2657 
Q 3669 2231 3669 1497 
Q 3669 778 3244 343 
Q 2819 -91 2113 -91 
Q 1303 -91 875 529 
Q 447 1150 447 2328 
Q 447 3434 972 4092 
Q 1497 4750 2381 4750 
Q 2619 4750 2861 4703 
Q 3103 4656 3366 4563 
z
" transform="scale(0.015625)"/>
       </defs>
       <use xlink:href="#DejaVuSans-31" transform="translate(0 0.765625)"/>
       <use xlink:href="#DejaVuSans-30" transform="translate(63.623047 0.765625)"/>
       <use xlink:href="#DejaVuSans-36" transform="translate(128.203125 39.046875) scale(0.7)"/>
      </g>
     </g>
    </g>
    <g id="text_12">
     <!-- Maximum displacement -->
     <g transform="translate(19.417366 268.381875) rotate(-90) scale(0.1 -0.1)">
      <defs>
       <path id="DejaVuSans-78" d="M 3513 3500 
L 2247 1797 
L 3578 0 
L 2900 0 
L 1881 1375 
L 863 0 
L 184 0 
L 1544 1831 
L 300 3500 
L 978 3500 
L 1906 2253 
L 2834 3500 
L 3513 3500 
z
" transform="scale(0.015625)"/>
       <path id="DejaVuSans-75" d="M 544 1381 
L 544 3500 
L 1119 3500 
L 1119 1403 
Q 1119 906 1312 657 
Q 1506 409 1894 409 
Q 2359 409 2629 706 
Q 2900 1003 2900 1516 
L 2900 3500 
L 3475 3500 
L 3475 0 
L 2900 0 
L 2900 538 
Q 2691 219 2414 64 
Q 2138 -91 1772 -91 
Q 1169 -91 856 284 
Q 544 659 544 1381 
z
M 1991 3584 
L 1991 3584 
z
" transform="scale(0.015625)"/>
       <path id="DejaVuSans-20" transform="scale(0.015625)"/>
       <path id="DejaVuSans-70" d="M 1159 525 
L 1159 -1331 
L 581 -1331 
L 581 3500 
L 1159 3500 
L 1159 2969 
Q 1341 3281 1617 3432 
Q 1894 3584 2278 3584 
Q 2916 3584 3314 3078 
Q 3713 2572 3713 1747 
Q 3713 922 3314 415 
Q 2916 -91 2278 -91 
Q 1894 -91 1617 61 
Q 1341 213 1159 525 
z
M 3116 1747 
Q 3116 2381 2855 2742 
Q 2594 3103 2138 3103 
Q 1681 3103 1420 2742 
Q 1159 2381 1159 1747 
Q 1159 1113 1420 752 
Q 1681 391 2138 391 
Q 2594 391 2855 752 
Q 3116 1113 3116 1747 
z
" transform="scale(0.015625)"/>
       <path id="DejaVuSans-63" d="M 3122 3366 
L 3122 2828 
Q 2878 2963 2633 3030 
Q 2388 3097 2138 3097 
Q 1578 3097 1268 2742 
Q 959 2388 959 1747 
Q 959 1106 1268 751 
Q 1578 397 2138 397 
Q 2388 397 2633 464 
Q 2878 531 3122 666 
L 3122 134 
Q 2881 22 2623 -34 
Q 2366 -91 2075 -91 
Q 1284 -91 818 406 
Q 353 903 353 1747 
Q 353 2603 823 3093 
Q 1294 3584 2113 3584 
Q 2378 3584 2631 3529 
Q 2884 3475 3122 3366 
z
" transform="scale(0.015625)"/>
      </defs>
      <use xlink:href="#DejaVuSans-4d"/>
      <use xlink:href="#DejaVuSans-61" transform="translate(86.279297 0)"/>
      <use xlink:href="#DejaVuSans-78" transform="translate(147.558594 0)"/>
      <use xlink:href="#DejaVuSans-69" transform="translate(206.738281 0)"/>
      <use xlink:href="#DejaVuSans-6d" transform="translate(234.521484 0)"/>
      <use xlink:href="#DejaVuSans-75" transform="translate(331.933594 0)"/>
      <use xlink:href="#DejaVuSans-6d" transform="translate(395.3125 0)"/>
      <use xlink:href="#DejaVuSans-20" transform="translate(492.724609 0)"/>
      <use xlink:href="#DejaVuSans-64" transform="translate(524.511719 0)"/>
      <use xlink:href="#DejaVuSans-69" transform="translate(587.988281 0)"/>
      <use xlink:href="#DejaVuSans-73" transform="translate(615.771484 0)"/>
      <use xlink:href="#DejaVuSans-70" transform="translate(667.871094 0)"/>
      <use xlink:href="#DejaVuSans-6c" transform="translate(731.347656 0)"/>
      <use xlink:href="#DejaVuSans-61" transform="translate(759.130859 0)"/>
      <use xlink:href="#DejaVuSans-63" transform="translate(820.410156 0)"/>
      <use xlink:href="#DejaVuSans-65" transform="translate(875.390625 0)"/>
      <use xlink:href="#DejaVuSans-6d" transform="translate(936.914062 0)"/>
      <use xlink:href="#DejaVuSans-65" transform="translate(1034.326172 0)"/>
      <use xlink:href="#DejaVuSans-6e" transform="translate(1095.849609 0)"/>
      <use xlink:href="#DejaVuSans-74" transform="translate(1159.228516 0)"/>
     </g>
    </g>
   </g>
   <g id="LineCollection_1">
    <path d="M 101.004905 373.532727 
L 101.004905 367.438602 
" clip-path="url(#p664a9974f0)" style="fill: none; stroke: #000000; stroke-width: 1.5"/>
    <path d="M 258.10037 372.513365 
L 258.10037 365.296997 
" clip-path="url(#p664a9974f0)" style="fill: none; stroke: #000000; stroke-width: 1.5"/>
    <path d="M 415.195836 372.372249 
L 415.195836 367.381774 
" clip-path="url(#p664a9974f0)" style="fill: none; stroke: #000000; stroke-width: 1.5"/>
    <path d="M 572.291302 368.804757 
L 572.291302 361.958698 
" clip-path="url(#p664a9974f0)" style="fill: none; stroke: #000000; stroke-width: 1.5"/>
   </g>
   <g id="line2d_17">
    <defs>
     <path id="m502e826f8a" d="M 3 0 
L -3 -0 
" style="stroke: #000000"/>
    </defs>
    <g clip-path="url(#p664a9974f0)">
     <use xlink:href="#m502e826f8a" x="101.004905" y="373.532727" style="fill: #1f77b4; stroke: #000000"/>
     <use xlink:href="#m502e826f8a" x="258.10037" y="372.513365" style="fill: #1f77b4; stroke: #000000"/>
     <use xlink:href="#m502e826f8a" x="415.195836" y="372.372249" style="fill: #1f77b4; stroke: #000000"/>
     <use xlink:href="#m502e826f8a" x="572.291302" y="368.804757" style="fill: #1f77b4; stroke: #000000"/>
    </g>
   </g>
   <g id="line2d_18">
    <g clip-path="url(#p664a9974f0)">
     <use xlink:href="#m502e826f8a" x="101.004905" y="367.438602" style="fill: #1f77b4; stroke: #000000"/>
     <use xlink:href="#m502e826f8a" x="258.10037" y="365.296997" style="fill: #1f77b4; stroke: #000000"/>
     <use xlink:href="#m502e826f8a" x="415.195836" y="367.381774" style="fill: #1f77b4; stroke: #000000"/>
     <use xlink:href="#m502e826f8a" x="572.291302" y="361.958698" style="fill: #1f77b4; stroke: #000000"/>
    </g>
   </g>
   <g id="LineCollection_2">
    <path d="M 131.638521 315.864607 
L 131.638521 312.654951 
" clip-path="url(#p664a9974f0)" style="fill: none; stroke: #000000; stroke-width: 1.5"/>
    <path d="M 288.733986 315.368628 
L 288.733986 310.295121 
" clip-path="url(#p664a9974f0)" style="fill: none; stroke: #000000; stroke-width: 1.5"/>
    <path d="M 445.829452 315.952104 
L 445.829452 311.84434 
" clip-path="url(#p664a9974f0)" style="fill: none; stroke: #000000; stroke-width: 1.5"/>
    <path d="M 602.924918 316.577906 
L 602.924918 312.153888 
" clip-path="url(#p664a9974f0)" style="fill: none; stroke: #000000; stroke-width: 1.5"/>
   </g>
   <g id="line2d_19">
    <g clip-path="url(#p664a9974f0)">
     <use xlink:href="#m502e826f8a" x="131.638521" y="315.864607" style="fill: #1f77b4; stroke: #000000"/>
     <use xlink:href="#m502e826f8a" x="288.733986" y="315.368628" style="fill: #1f77b4; stroke: #000000"/>
     <use xlink:href="#m502e826f8a" x="445.829452" y="315.952104" style="fill: #1f77b4; stroke: #000000"/>
     <use xlink:href="#m502e826f8a" x="602.924918" y="316.577906" style="fill: #1f77b4; stroke: #000000"/>
    </g>
   </g>
   <g id="line2d_20">
    <g clip-path="url(#p664a9974f0)">
     <use xlink:href="#m502e826f8a" x="131.638521" y="312.654951" style="fill: #1f77b4; stroke: #000000"/>
     <use xlink:href="#m502e826f8a" x="288.733986" y="310.295121" style="fill: #1f77b4; stroke: #000000"/>
     <use xlink:href="#m502e826f8a" x="445.829452" y="311.84434" style="fill: #1f77b4; stroke: #000000"/>
     <use xlink:href="#m502e826f8a" x="602.924918" y="312.153888" style="fill: #1f77b4; stroke: #000000"/>
    </g>
   </g>
   <g id="LineCollection_3">
    <path d="M 162.272136 43.387552 
L 162.272136 43.387397 
" clip-path="url(#p664a9974f0)" style="fill: none; stroke: #000000; stroke-width: 1.5"/>
    <path d="M 319.367602 43.387523 
L 319.367602 43.387273 
" clip-path="url(#p664a9974f0)" style="fill: none; stroke: #000000; stroke-width: 1.5"/>
    <path d="M 476.463068 43.387578 
L 476.463068 43.387356 
" clip-path="url(#p664a9974f0)" style="fill: none; stroke: #000000; stroke-width: 1.5"/>
    <path d="M 633.558533 43.38757 
L 633.558533 43.387372 
" clip-path="url(#p664a9974f0)" style="fill: none; stroke: #000000; stroke-width: 1.5"/>
   </g>
   <g id="line2d_21">
    <g clip-path="url(#p664a9974f0)">
     <use xlink:href="#m502e826f8a" x="162.272136" y="43.387552" style="fill: #1f77b4; stroke: #000000"/>
     <use xlink:href="#m502e826f8a" x="319.367602" y="43.387523" style="fill: #1f77b4; stroke: #000000"/>
     <use xlink:href="#m502e826f8a" x="476.463068" y="43.387578" style="fill: #1f77b4; stroke: #000000"/>
     <use xlink:href="#m502e826f8a" x="633.558533" y="43.38757" style="fill: #1f77b4; stroke: #000000"/>
    </g>
   </g>
   <g id="line2d_22">
    <g clip-path="url(#p664a9974f0)">
     <use xlink:href="#m502e826f8a" x="162.272136" y="43.387397" style="fill: #1f77b4; stroke: #000000"/>
     <use xlink:href="#m502e826f8a" x="319.367602" y="43.387273" style="fill: #1f77b4; stroke: #000000"/>
     <use xlink:href="#m502e826f8a" x="476.463068" y="43.387356" style="fill: #1f77b4; stroke: #000000"/>
     <use xlink:href="#m502e826f8a" x="633.558533" y="43.387372" style="fill: #1f77b4; stroke: #000000"/>
    </g>
   </g>
   <g id="LineCollection_4">
    <path d="M 192.905752 314.738869 
L 192.905752 314.738869 
" clip-path="url(#p664a9974f0)" style="fill: none; stroke: #000000; stroke-width: 1.5"/>
    <path d="M 350.001218 316.708749 
L 350.001218 316.675658 
" clip-path="url(#p664a9974f0)" style="fill: none; stroke: #000000; stroke-width: 1.5"/>
    <path d="M 507.096683 316.343898 
L 507.096683 316.34389 
" clip-path="url(#p664a9974f0)" style="fill: none; stroke: #000000; stroke-width: 1.5"/>
    <path d="M 664.192149 311.912942 
L 664.192149 311.909001 
" clip-path="url(#p664a9974f0)" style="fill: none; stroke: #000000; stroke-width: 1.5"/>
   </g>
   <g id="line2d_23">
    <g clip-path="url(#p664a9974f0)">
     <use xlink:href="#m502e826f8a" x="192.905752" y="314.738869" style="fill: #1f77b4; stroke: #000000"/>
     <use xlink:href="#m502e826f8a" x="350.001218" y="316.708749" style="fill: #1f77b4; stroke: #000000"/>
     <use xlink:href="#m502e826f8a" x="507.096683" y="316.343898" style="fill: #1f77b4; stroke: #000000"/>
     <use xlink:href="#m502e826f8a" x="664.192149" y="311.912942" style="fill: #1f77b4; stroke: #000000"/>
    </g>
   </g>
   <g id="line2d_24">
    <g clip-path="url(#p664a9974f0)">
     <use xlink:href="#m502e826f8a" x="192.905752" y="314.738869" style="fill: #1f77b4; stroke: #000000"/>
     <use xlink:href="#m502e826f8a" x="350.001218" y="316.675658" style="fill: #1f77b4; stroke: #000000"/>
     <use xlink:href="#m502e826f8a" x="507.096683" y="316.34389" style="fill: #1f77b4; stroke: #000000"/>
     <use xlink:href="#m502e826f8a" x="664.192149" y="311.909001" style="fill: #1f77b4; stroke: #000000"/>
    </g>
   </g>
   <g id="patch_19">
    <path d="M 55.997054 390.04 
L 55.997054 26.88 
" style="fill: none; stroke: #000000; stroke-width: 0.8; stroke-linejoin: miter; stroke-linecap: square"/>
   </g>
   <g id="patch_20">
    <path d="M 709.2 390.04 
L 709.2 26.88 
" style="fill: none; stroke: #000000; stroke-width: 0.8; stroke-linejoin: miter; stroke-linecap: square"/>
   </g>
   <g id="patch_21">
    <path d="M 55.997054 390.04 
L 709.2 390.04 
" style="fill: none; stroke: #000000; stroke-width: 0.8; stroke-linejoin: miter; stroke-linecap: square"/>
   </g>
   <g id="patch_22">
    <path d="M 55.997054 26.88 
L 709.2 26.88 
" style="fill: none; stroke: #000000; stroke-width: 0.8; stroke-linejoin: miter; stroke-linecap: square"/>
   </g>
   <g id="text_13">
    <!-- Maximum Displacement by Material and Model -->
    <g transform="translate(241.214152 20.88) scale(0.12 -0.12)">
     <defs>
      <path id="DejaVuSans-44" d="M 1259 4147 
L 1259 519 
L 2022 519 
Q 2988 519 3436 956 
Q 3884 1394 3884 2338 
Q 3884 3275 3436 3711 
Q 2988 4147 2022 4147 
L 1259 4147 
z
M 628 4666 
L 1925 4666 
Q 3281 4666 3915 4102 
Q 4550 3538 4550 2338 
Q 4550 1131 3912 565 
Q 3275 0 1925 0 
L 628 0 
L 628 4666 
z
" transform="scale(0.015625)"/>
      <path id="DejaVuSans-79" d="M 2059 -325 
Q 1816 -950 1584 -1140 
Q 1353 -1331 966 -1331 
L 506 -1331 
L 506 -850 
L 844 -850 
Q 1081 -850 1212 -737 
Q 1344 -625 1503 -206 
L 1606 56 
L 191 3500 
L 800 3500 
L 1894 763 
L 2988 3500 
L 3597 3500 
L 2059 -325 
z
" transform="scale(0.015625)"/>
     </defs>
     <use xlink:href="#DejaVuSans-4d"/>
     <use xlink:href="#DejaVuSans-61" transform="translate(86.279297 0)"/>
     <use xlink:href="#DejaVuSans-78" transform="translate(147.558594 0)"/>
     <use xlink:href="#DejaVuSans-69" transform="translate(206.738281 0)"/>
     <use xlink:href="#DejaVuSans-6d" transform="translate(234.521484 0)"/>
     <use xlink:href="#DejaVuSans-75" transform="translate(331.933594 0)"/>
     <use xlink:href="#DejaVuSans-6d" transform="translate(395.3125 0)"/>
     <use xlink:href="#DejaVuSans-20" transform="translate(492.724609 0)"/>
     <use xlink:href="#DejaVuSans-44" transform="translate(524.511719 0)"/>
     <use xlink:href="#DejaVuSans-69" transform="translate(601.513672 0)"/>
     <use xlink:href="#DejaVuSans-73" transform="translate(629.296875 0)"/>
     <use xlink:href="#DejaVuSans-70" transform="translate(681.396484 0)"/>
     <use xlink:href="#DejaVuSans-6c" transform="translate(744.873047 0)"/>
     <use xlink:href="#DejaVuSans-61" transform="translate(772.65625 0)"/>
     <use xlink:href="#DejaVuSans-63" transform="translate(833.935547 0)"/>
     <use xlink:href="#DejaVuSans-65" transform="translate(888.916016 0)"/>
     <use xlink:href="#DejaVuSans-6d" transform="translate(950.439453 0)"/>
     <use xlink:href="#DejaVuSans-65" transform="translate(1047.851562 0)"/>
     <use xlink:href="#DejaVuSans-6e" transform="translate(1109.375 0)"/>
     <use xlink:href="#DejaVuSans-74" transform="translate(1172.753906 0)"/>
     <use xlink:href="#DejaVuSans-20" transform="translate(1211.962891 0)"/>
     <use xlink:href="#DejaVuSans-62" transform="translate(1243.75 0)"/>
     <use xlink:href="#DejaVuSans-79" transform="translate(1307.226562 0)"/>
     <use xlink:href="#DejaVuSans-20" transform="translate(1366.40625 0)"/>
     <use xlink:href="#DejaVuSans-4d" transform="translate(1398.193359 0)"/>
     <use xlink:href="#DejaVuSans-61" transform="translate(1484.472656 0)"/>
     <use xlink:href="#DejaVuSans-74" transform="translate(1545.751953 0)"/>
     <use xlink:href="#DejaVuSans-65" transform="translate(1584.960938 0)"/>
     <use xlink:href="#DejaVuSans-72" transform="translate(1646.484375 0)"/>
     <use xlink:href="#DejaVuSans-69" transform="translate(1687.597656 0)"/>
     <use xlink:href="#DejaVuSans-61" transform="translate(1715.380859 0)"/>
     <use xlink:href="#DejaVuSans-6c" transform="translate(1776.660156 0)"/>
     <use xlink:href="#DejaVuSans-20" transform="translate(1804.443359 0)"/>
     <use xlink:href="#DejaVuSans-61" transform="translate(1836.230469 0)"/>
     <use xlink:href="#DejaVuSans-6e" transform="translate(1897.509766 0)"/>
     <use xlink:href="#DejaVuSans-64" transform="translate(1960.888672 0)"/>
     <use xlink:href="#DejaVuSans-20" transform="translate(2024.365234 0)"/>
     <use xlink:href="#DejaVuSans-4d" transform="translate(2056.152344 0)"/>
     <use xlink:href="#DejaVuSans-6f" transform="translate(2142.431641 0)"/>
     <use xlink:href="#DejaVuSans-64" transform="translate(2203.613281 0)"/>
     <use xlink:href="#DejaVuSans-65" transform="translate(2267.089844 0)"/>
     <use xlink:href="#DejaVuSans-6c" transform="translate(2328.613281 0)"/>
    </g>
   </g>
   <g id="legend_1">
    <g id="patch_23">
     <path d="M 336.955558 239.31625 
L 428.241496 239.31625 
Q 430.241496 239.31625 430.241496 237.31625 
L 430.241496 179.60375 
Q 430.241496 177.60375 428.241496 177.60375 
L 336.955558 177.60375 
Q 334.955558 177.60375 334.955558 179.60375 
L 334.955558 237.31625 
Q 334.955558 239.31625 336.955558 239.31625 
z
" style="fill: #ffffff; opacity: 0.8; stroke: #cccccc; stroke-linejoin: miter"/>
    </g>
    <g id="patch_24">
     <path d="M 338.955558 189.202187 
L 358.955558 189.202187 
L 358.955558 182.202187 
L 338.955558 182.202187 
z
" style="fill: #2563eb; opacity: 0.86"/>
    </g>
    <g id="text_14">
     <!-- pinn -->
     <g transform="translate(366.955558 189.202187) scale(0.1 -0.1)">
      <use xlink:href="#DejaVuSans-70"/>
      <use xlink:href="#DejaVuSans-69" transform="translate(63.476562 0)"/>
      <use xlink:href="#DejaVuSans-6e" transform="translate(91.259766 0)"/>
      <use xlink:href="#DejaVuSans-6e" transform="translate(154.638672 0)"/>
     </g>
    </g>
    <g id="patch_25">
     <path d="M 338.955558 203.880312 
L 358.955558 203.880312 
L 358.955558 196.880312 
L 338.955558 196.880312 
z
" style="fill: #059669; opacity: 0.86"/>
    </g>
    <g id="text_15">
     <!-- mgn -->
     <g transform="translate(366.955558 203.880312) scale(0.1 -0.1)">
      <use xlink:href="#DejaVuSans-6d"/>
      <use xlink:href="#DejaVuSans-67" transform="translate(97.412109 0)"/>
      <use xlink:href="#DejaVuSans-6e" transform="translate(160.888672 0)"/>
     </g>
    </g>
    <g id="patch_26">
     <path d="M 338.955558 218.558437 
L 358.955558 218.558437 
L 358.955558 211.558437 
L 338.955558 211.558437 
z
" style="fill: #dc2626; opacity: 0.86"/>
    </g>
    <g id="text_16">
     <!-- fno -->
     <g transform="translate(366.955558 218.558437) scale(0.1 -0.1)">
      <defs>
       <path id="DejaVuSans-66" d="M 2375 4863 
L 2375 4384 
L 1825 4384 
Q 1516 4384 1395 4259 
Q 1275 4134 1275 3809 
L 1275 3500 
L 2222 3500 
L 2222 3053 
L 1275 3053 
L 1275 0 
L 697 0 
L 697 3053 
L 147 3053 
L 147 3500 
L 697 3500 
L 697 3744 
Q 697 4328 969 4595 
Q 1241 4863 1831 4863 
L 2375 4863 
z
" transform="scale(0.015625)"/>
      </defs>
      <use xlink:href="#DejaVuSans-66"/>
      <use xlink:href="#DejaVuSans-6e" transform="translate(35.205078 0)"/>
      <use xlink:href="#DejaVuSans-6f" transform="translate(98.583984 0)"/>
     </g>
    </g>
    <g id="patch_27">
     <path d="M 338.955558 233.236562 
L 358.955558 233.236562 
L 358.955558 226.236562 
L 338.955558 226.236562 
z
" style="fill: #7c3aed; opacity: 0.86"/>
    </g>
    <g id="text_17">
     <!-- transformer -->
     <g transform="translate(366.955558 233.236562) scale(0.1 -0.1)">
      <use xlink:href="#DejaVuSans-74"/>
      <use xlink:href="#DejaVuSans-72" transform="translate(39.208984 0)"/>
      <use xlink:href="#DejaVuSans-61" transform="translate(80.322266 0)"/>
      <use xlink:href="#DejaVuSans-6e" transform="translate(141.601562 0)"/>
      <use xlink:href="#DejaVuSans-73" transform="translate(204.980469 0)"/>
      <use xlink:href="#DejaVuSans-66" transform="translate(257.080078 0)"/>
      <use xlink:href="#DejaVuSans-6f" transform="translate(292.285156 0)"/>
      <use xlink:href="#DejaVuSans-72" transform="translate(353.466797 0)"/>
      <use xlink:href="#DejaVuSans-6d" transform="translate(392.830078 0)"/>
      <use xlink:href="#DejaVuSans-65" transform="translate(490.242188 0)"/>
      <use xlink:href="#DejaVuSans-72" transform="translate(551.765625 0)"/>
     </g>
    </g>
   </g>
  </g>
 </g>
 <defs>
  <clipPath id="p664a9974f0">
   <rect x="55.997054" y="26.88" width="653.202946" height="363.16"/>
  </clipPath>
 </defs>
</svg>
