<?xml version="1.0" encoding="utf-8" standalone="no"?>
<!DOCTYPE svg PUBLIC "-//W3C//DTD SVG 1.1//EN"
  "http://www.w3.org/Graphics/SVG/1.1/DTD/svg11.dtd">
<svg xmlns:xlink="http://www.w3.org/1999/xlink" width="720pt" height="432pt" viewBox="0 0 720 432" xmlns="http://www.w3.org/2000/svg" version="1.1">
 <metadata>
  <rdf:RDF xmlns:dc="http://purl.org/dc/elements/1.1/" xmlns:cc="http://creativecommons.org/ns#" xmlns:rdf="http://www.w3.org/1999/02/22-rdf-syntax-ns#">
   <cc:Work>
    <dc:type rdf:resource="http://purl.org/dc/dcmitype/StillImage"/>
    <dc:date>2026-05-17T02:10:40.538907</dc:date>
    <dc:format>image/svg+xml</dc:format>
    <dc:creator>
     <cc:Agent>
      <dc:title>Matplotlib v3.10.9, https://matplotlib.org/</dc:title>
     </cc:Agent>
    </dc:creator>
   </cc:Work>
  </rdf:RDF>
 </metadata>
 <defs>
  <style type="text/css">*{stroke-linejoin: round; stroke-linecap: butt}</style>
 </defs>
 <g id="figure_1">
  <g id="patch_1">
   <path d="M 0 432 
L 720 432 
L 720 0 
L 0 0 
z
" style="fill: #ffffff"/>
  </g>
  <g id="axes_1">
   <g id="patch_2">
    <path d="M 47.72 390.04 
L 709.2 390.04 
L 709.2 26.88 
L 47.72 26.88 
z
" style="fill: #ffffff"/>
   </g>
   <g id="patch_3">
    <path d="M 77.787273 390.04 
L 108.809062 390.04 
L 108.809062 380.412937 
L 77.787273 380.412937 
z
" clip-path="url(#pc23f0727ad)" style="fill: #2563eb; opacity: 0.86"/>
   </g>
   <g id="patch_4">
    <path d="M 236.873372 390.04 
L 267.895161 390.04 
L 267.895161 381.282543 
L 236.873372 381.282543 
z
" clip-path="url(#pc23f0727ad)" style="fill: #2563eb; opacity: 0.86"/>
   </g>
   <g id="patch_5">
    <path d="M 395.959471 390.04 
L 426.98126 390.04 
L 426.98126 380.446332 
L 395.959471 380.446332 
z
" clip-path="url(#pc23f0727ad)" style="fill: #2563eb; opacity: 0.86"/>
   </g>
   <g id="patch_6">
    <path d="M 555.04557 390.04 
L 586.067359 390.04 
L 586.067359 380.479642 
L 555.04557 380.479642 
z
" clip-path="url(#pc23f0727ad)" style="fill: #2563eb; opacity: 0.86"/>
   </g>
   <g id="patch_7">
    <path d="M 108.809062 390.04 
L 139.830851 390.04 
L 139.830851 140.806605 
L 108.809062 140.806605 
z
" clip-path="url(#pc23f0727ad)" style="fill: #059669; opacity: 0.86"/>
   </g>
   <g id="patch_8">
    <path d="M 267.895161 390.04 
L 298.91695 390.04 
L 298.91695 150.713275 
L 267.895161 150.713275 
z
" clip-path="url(#pc23f0727ad)" style="fill: #059669; opacity: 0.86"/>
   </g>
   <g id="patch_9">
    <path d="M 426.98126 390.04 
L 458.00305 390.04 
L 458.00305 135.058093 
L 426.98126 135.058093 
z
" clip-path="url(#pc23f0727ad)" style="fill: #059669; opacity: 0.86"/>
   </g>
   <g id="patch_10">
    <path d="M 586.067359 390.04 
L 617.089149 390.04 
L 617.089149 128.793532 
L 586.067359 128.793532 
z
" clip-path="url(#pc23f0727ad)" style="fill: #059669; opacity: 0.86"/>
   </g>
   <g id="patch_11">
    <path d="M 139.830851 390.04 
L 170.852641 390.04 
L 170.852641 243.859629 
L 139.830851 243.859629 
z
" clip-path="url(#pc23f0727ad)" style="fill: #dc2626; opacity: 0.86"/>
   </g>
   <g id="patch_12">
    <path d="M 298.91695 390.04 
L 329.93874 390.04 
L 329.93874 253.766299 
L 298.91695 253.766299 
z
" clip-path="url(#pc23f0727ad)" style="fill: #dc2626; opacity: 0.86"/>
   </g>
   <g id="patch_13">
    <path d="M 458.00305 390.04 
L 489.024839 390.04 
L 489.024839 242.404993 
L 458.00305 242.404993 
z
" clip-path="url(#pc23f0727ad)" style="fill: #dc2626; opacity: 0.86"/>
   </g>
   <g id="patch_14">
    <path d="M 617.089149 390.04 
L 648.110938 390.04 
L 648.110938 240.434308 
L 617.089149 240.434308 
z
" clip-path="url(#pc23f0727ad)" style="fill: #dc2626; opacity: 0.86"/>
   </g>
   <g id="patch_15">
    <path d="M 170.852641 390.04 
L 201.87443 390.04 
L 201.87443 377.92426 
L 170.852641 377.92426 
z
" clip-path="url(#pc23f0727ad)" style="fill: #7c3aed; opacity: 0.86"/>
   </g>
   <g id="patch_16">
    <path d="M 329.93874 390.04 
L 360.960529 390.04 
L 360.960529 378.879068 
L 329.93874 378.879068 
z
" clip-path="url(#pc23f0727ad)" style="fill: #7c3aed; opacity: 0.86"/>
   </g>
   <g id="patch_17">
    <path d="M 489.024839 390.04 
L 520.046628 390.04 
L 520.046628 378.081255 
L 489.024839 378.081255 
z
" clip-path="url(#pc23f0727ad)" style="fill: #7c3aed; opacity: 0.86"/>
   </g>
   <g id="patch_18">
    <path d="M 648.110938 390.04 
L 679.132727 390.04 
L 679.132727 377.81628 
L 648.110938 377.81628 
z
" clip-path="url(#pc23f0727ad)" style="fill: #7c3aed; opacity: 0.86"/>
   </g>
   <g id="matplotlib.axis_1">
    <g id="xtick_1">
     <g id="line2d_1">
      <defs>
       <path id="md2f0dc64e3" d="M 0 0 
L 0 3.5 
" style="stroke: #000000; stroke-width: 0.8"/>
      </defs>
      <g>
       <use xlink:href="#md2f0dc64e3" x="139.830851" y="390.04" style="stroke: #000000; stroke-width: 0.8"/>
      </g>
     </g>
     <g id="text_1">
      <!-- basalt -->
      <g transform="translate(124.574601 404.638438) scale(0.1 -0.1)">
       <defs>
        <path id="DejaVuSans-62" d="M 3116 1747 
Q 3116 2381 2855 2742 
Q 2594 3103 2138 3103 
Q 1681 3103 1420 2742 
Q 1159 2381 1159 1747 
Q 1159 1113 1420 752 
Q 1681 391 2138 391 
Q 2594 391 2855 752 
Q 3116 1113 3116 1747 
z
M 1159 2969 
Q 1341 3281 1617 3432 
Q 1894 3584 2278 3584 
Q 2916 3584 3314 3078 
Q 3713 2572 3713 1747 
Q 3713 922 3314 415 
Q 2916 -91 2278 -91 
Q 1894 -91 1617 61 
Q 1341 213 1159 525 
L 1159 0 
L 581 0 
L 581 4863 
L 1159 4863 
L 1159 2969 
z
" transform="scale(0.015625)"/>
        <path id="DejaVuSans-61" d="M 2194 1759 
Q 1497 1759 1228 1600 
Q 959 1441 959 1056 
Q 959 750 1161 570 
Q 1363 391 1709 391 
Q 2188 391 2477 730 
Q 2766 1069 2766 1631 
L 2766 1759 
L 2194 1759 
z
M 3341 1997 
L 3341 0 
L 2766 0 
L 2766 531 
Q 2569 213 2275 61 
Q 1981 -91 1556 -91 
Q 1019 -91 701 211 
Q 384 513 384 1019 
Q 384 1609 779 1909 
Q 1175 2209 1959 2209 
L 2766 2209 
L 2766 2266 
Q 2766 2663 2505 2880 
Q 2244 3097 1772 3097 
Q 1472 3097 1187 3025 
Q 903 2953 641 2809 
L 641 3341 
Q 956 3463 1253 3523 
Q 1550 3584 1831 3584 
Q 2591 3584 2966 3190 
Q 3341 2797 3341 1997 
z
" transform="scale(0.015625)"/>
        <path id="DejaVuSans-73" d="M 2834 3397 
L 2834 2853 
Q 2591 2978 2328 3040 
Q 2066 3103 1784 3103 
Q 1356 3103 1142 2972 
Q 928 2841 928 2578 
Q 928 2378 1081 2264 
Q 1234 2150 1697 2047 
L 1894 2003 
Q 2506 1872 2764 1633 
Q 3022 1394 3022 966 
Q 3022 478 2636 193 
Q 2250 -91 1575 -91 
Q 1294 -91 989 -36 
Q 684 19 347 128 
L 347 722 
Q 666 556 975 473 
Q 1284 391 1588 391 
Q 1994 391 2212 530 
Q 2431 669 2431 922 
Q 2431 1156 2273 1281 
Q 2116 1406 1581 1522 
L 1381 1569 
Q 847 1681 609 1914 
Q 372 2147 372 2553 
Q 372 3047 722 3315 
Q 1072 3584 1716 3584 
Q 2034 3584 2315 3537 
Q 2597 3491 2834 3397 
z
" transform="scale(0.015625)"/>
        <path id="DejaVuSans-6c" d="M 603 4863 
L 1178 4863 
L 1178 0 
L 603 0 
L 603 4863 
z
" transform="scale(0.015625)"/>
        <path id="DejaVuSans-74" d="M 1172 4494 
L 1172 3500 
L 2356 3500 
L 2356 3053 
L 1172 3053 
L 1172 1153 
Q 1172 725 1289 603 
Q 1406 481 1766 481 
L 2356 481 
L 2356 0 
L 1766 0 
Q 1100 0 847 248 
Q 594 497 594 1153 
L 594 3053 
L 172 3053 
L 172 3500 
L 594 3500 
L 594 4494 
L 1172 4494 
z
" transform="scale(0.015625)"/>
       </defs>
       <use xlink:href="#DejaVuSans-62"/>
       <use xlink:href="#DejaVuSans-61" transform="translate(63.476562 0)"/>
       <use xlink:href="#DejaVuSans-73" transform="translate(124.755859 0)"/>
       <use xlink:href="#DejaVuSans-61" transform="translate(176.855469 0)"/>
       <use xlink:href="#DejaVuSans-6c" transform="translate(238.134766 0)"/>
       <use xlink:href="#DejaVuSans-74" transform="translate(265.917969 0)"/>
      </g>
     </g>
    </g>
    <g id="xtick_2">
     <g id="line2d_2">
      <g>
       <use xlink:href="#md2f0dc64e3" x="298.91695" y="390.04" style="stroke: #000000; stroke-width: 0.8"/>
      </g>
     </g>
     <g id="text_2">
      <!-- sandstone -->
      <g transform="translate(273.0357 404.638438) scale(0.1 -0.1)">
       <defs>
        <path id="DejaVuSans-6e" d="M 3513 2113 
L 3513 0 
L 2938 0 
L 2938 2094 
Q 2938 2591 2744 2837 
Q 2550 3084 2163 3084 
Q 1697 3084 1428 2787 
Q 1159 2491 1159 1978 
L 1159 0 
L 581 0 
L 581 3500 
L 1159 3500 
L 1159 2956 
Q 1366 3272 1645 3428 
Q 1925 3584 2291 3584 
Q 2894 3584 3203 3211 
Q 3513 2838 3513 2113 
z
" transform="scale(0.015625)"/>
        <path id="DejaVuSans-64" d="M 2906 2969 
L 2906 4863 
L 3481 4863 
L 3481 0 
L 2906 0 
L 2906 525 
Q 2725 213 2448 61 
Q 2172 -91 1784 -91 
Q 1150 -91 751 415 
Q 353 922 353 1747 
Q 353 2572 751 3078 
Q 1150 3584 1784 3584 
Q 2172 3584 2448 3432 
Q 2725 3281 2906 2969 
z
M 947 1747 
Q 947 1113 1208 752 
Q 1469 391 1925 391 
Q 2381 391 2643 752 
Q 2906 1113 2906 1747 
Q 2906 2381 2643 2742 
Q 2381 3103 1925 3103 
Q 1469 3103 1208 2742 
Q 947 2381 947 1747 
z
" transform="scale(0.015625)"/>
        <path id="DejaVuSans-6f" d="M 1959 3097 
Q 1497 3097 1228 2736 
Q 959 2375 959 1747 
Q 959 1119 1226 758 
Q 1494 397 1959 397 
Q 2419 397 2687 759 
Q 2956 1122 2956 1747 
Q 2956 2369 2687 2733 
Q 2419 3097 1959 3097 
z
M 1959 3584 
Q 2709 3584 3137 3096 
Q 3566 2609 3566 1747 
Q 3566 888 3137 398 
Q 2709 -91 1959 -91 
Q 1206 -91 779 398 
Q 353 888 353 1747 
Q 353 2609 779 3096 
Q 1206 3584 1959 3584 
z
" transform="scale(0.015625)"/>
        <path id="DejaVuSans-65" d="M 3597 1894 
L 3597 1613 
L 953 1613 
Q 991 1019 1311 708 
Q 1631 397 2203 397 
Q 2534 397 2845 478 
Q 3156 559 3463 722 
L 3463 178 
Q 3153 47 2828 -22 
Q 2503 -91 2169 -91 
Q 1331 -91 842 396 
Q 353 884 353 1716 
Q 353 2575 817 3079 
Q 1281 3584 2069 3584 
Q 2775 3584 3186 3129 
Q 3597 2675 3597 1894 
z
M 3022 2063 
Q 3016 2534 2758 2815 
Q 2500 3097 2075 3097 
Q 1594 3097 1305 2825 
Q 1016 2553 972 2059 
L 3022 2063 
z
" transform="scale(0.015625)"/>
       </defs>
       <use xlink:href="#DejaVuSans-73"/>
       <use xlink:href="#DejaVuSans-61" transform="translate(52.099609 0)"/>
       <use xlink:href="#DejaVuSans-6e" transform="translate(113.378906 0)"/>
       <use xlink:href="#DejaVuSans-64" transform="translate(176.757812 0)"/>
       <use xlink:href="#DejaVuSans-73" transform="translate(240.234375 0)"/>
       <use xlink:href="#DejaVuSans-74" transform="translate(292.333984 0)"/>
       <use xlink:href="#DejaVuSans-6f" transform="translate(331.542969 0)"/>
       <use xlink:href="#DejaVuSans-6e" transform="translate(392.724609 0)"/>
       <use xlink:href="#DejaVuSans-65" transform="translate(456.103516 0)"/>
      </g>
     </g>
    </g>
    <g id="xtick_3">
     <g id="line2d_3">
      <g>
       <use xlink:href="#md2f0dc64e3" x="458.00305" y="390.04" style="stroke: #000000; stroke-width: 0.8"/>
      </g>
     </g>
     <g id="text_3">
      <!-- granite -->
      <g transform="translate(440.114768 404.638438) scale(0.1 -0.1)">
       <defs>
        <path id="DejaVuSans-67" d="M 2906 1791 
Q 2906 2416 2648 2759 
Q 2391 3103 1925 3103 
Q 1463 3103 1205 2759 
Q 947 2416 947 1791 
Q 947 1169 1205 825 
Q 1463 481 1925 481 
Q 2391 481 2648 825 
Q 2906 1169 2906 1791 
z
M 3481 434 
Q 3481 -459 3084 -895 
Q 2688 -1331 1869 -1331 
Q 1566 -1331 1297 -1286 
Q 1028 -1241 775 -1147 
L 775 -588 
Q 1028 -725 1275 -790 
Q 1522 -856 1778 -856 
Q 2344 -856 2625 -561 
Q 2906 -266 2906 331 
L 2906 616 
Q 2728 306 2450 153 
Q 2172 0 1784 0 
Q 1141 0 747 490 
Q 353 981 353 1791 
Q 353 2603 747 3093 
Q 1141 3584 1784 3584 
Q 2172 3584 2450 3431 
Q 2728 3278 2906 2969 
L 2906 3500 
L 3481 3500 
L 3481 434 
z
" transform="scale(0.015625)"/>
        <path id="DejaVuSans-72" d="M 2631 2963 
Q 2534 3019 2420 3045 
Q 2306 3072 2169 3072 
Q 1681 3072 1420 2755 
Q 1159 2438 1159 1844 
L 1159 0 
L 581 0 
L 581 3500 
L 1159 3500 
L 1159 2956 
Q 1341 3275 1631 3429 
Q 1922 3584 2338 3584 
Q 2397 3584 2469 3576 
Q 2541 3569 2628 3553 
L 2631 2963 
z
" transform="scale(0.015625)"/>
        <path id="DejaVuSans-69" d="M 603 3500 
L 1178 3500 
L 1178 0 
L 603 0 
L 603 3500 
z
M 603 4863 
L 1178 4863 
L 1178 4134 
L 603 4134 
L 603 4863 
z
" transform="scale(0.015625)"/>
       </defs>
       <use xlink:href="#DejaVuSans-67"/>
       <use xlink:href="#DejaVuSans-72" transform="translate(63.476562 0)"/>
       <use xlink:href="#DejaVuSans-61" transform="translate(104.589844 0)"/>
       <use xlink:href="#DejaVuSans-6e" transform="translate(165.869141 0)"/>
       <use xlink:href="#DejaVuSans-69" transform="translate(229.248047 0)"/>
       <use xlink:href="#DejaVuSans-74" transform="translate(257.03125 0)"/>
       <use xlink:href="#DejaVuSans-65" transform="translate(296.240234 0)"/>
      </g>
     </g>
    </g>
    <g id="xtick_4">
     <g id="line2d_4">
      <g>
       <use xlink:href="#md2f0dc64e3" x="617.089149" y="390.04" style="stroke: #000000; stroke-width: 0.8"/>
      </g>
     </g>
     <g id="text_4">
      <!-- limestone -->
      <g transform="translate(592.494617 404.638438) scale(0.1 -0.1)">
       <defs>
        <path id="DejaVuSans-6d" d="M 3328 2828 
Q 3544 3216 3844 3400 
Q 4144 3584 4550 3584 
Q 5097 3584 5394 3201 
Q 5691 2819 5691 2113 
L 5691 0 
L 5113 0 
L 5113 2094 
Q 5113 2597 4934 2840 
Q 4756 3084 4391 3084 
Q 3944 3084 3684 2787 
Q 3425 2491 3425 1978 
L 3425 0 
L 2847 0 
L 2847 2094 
Q 2847 2600 2669 2842 
Q 2491 3084 2119 3084 
Q 1678 3084 1418 2786 
Q 1159 2488 1159 1978 
L 1159 0 
L 581 0 
L 581 3500 
L 1159 3500 
L 1159 2956 
Q 1356 3278 1631 3431 
Q 1906 3584 2284 3584 
Q 2666 3584 2933 3390 
Q 3200 3197 3328 2828 
z
" transform="scale(0.015625)"/>
       </defs>
       <use xlink:href="#DejaVuSans-6c"/>
       <use xlink:href="#DejaVuSans-69" transform="translate(27.783203 0)"/>
       <use xlink:href="#DejaVuSans-6d" transform="translate(55.566406 0)"/>
       <use xlink:href="#DejaVuSans-65" transform="translate(152.978516 0)"/>
       <use xlink:href="#DejaVuSans-73" transform="translate(214.501953 0)"/>
       <use xlink:href="#DejaVuSans-74" transform="translate(266.601562 0)"/>
       <use xlink:href="#DejaVuSans-6f" transform="translate(305.810547 0)"/>
       <use xlink:href="#DejaVuSans-6e" transform="translate(366.992188 0)"/>
       <use xlink:href="#DejaVuSans-65" transform="translate(430.371094 0)"/>
      </g>
     </g>
    </g>
    <g id="text_5">
     <!-- Material -->
     <g transform="translate(358.1475 418.316562) scale(0.1 -0.1)">
      <defs>
       <path id="DejaVuSans-4d" d="M 628 4666 
L 1569 4666 
L 2759 1491 
L 3956 4666 
L 4897 4666 
L 4897 0 
L 4281 0 
L 4281 4097 
L 3078 897 
L 2444 897 
L 1241 4097 
L 1241 0 
L 628 0 
L 628 4666 
z
" transform="scale(0.015625)"/>
      </defs>
      <use xlink:href="#DejaVuSans-4d"/>
      <use xlink:href="#DejaVuSans-61" transform="translate(86.279297 0)"/>
      <use xlink:href="#DejaVuSans-74" transform="translate(147.558594 0)"/>
      <use xlink:href="#DejaVuSans-65" transform="translate(186.767578 0)"/>
      <use xlink:href="#DejaVuSans-72" transform="translate(248.291016 0)"/>
      <use xlink:href="#DejaVuSans-69" transform="translate(289.404297 0)"/>
      <use xlink:href="#DejaVuSans-61" transform="translate(317.1875 0)"/>
      <use xlink:href="#DejaVuSans-6c" transform="translate(378.466797 0)"/>
     </g>
    </g>
   </g>
   <g id="matplotlib.axis_2">
    <g id="ytick_1">
     <g id="line2d_5">
      <path d="M 47.72 390.04 
L 709.2 390.04 
" clip-path="url(#pc23f0727ad)" style="fill: none; stroke: #b0b0b0; stroke-opacity: 0.28; stroke-width: 0.8; stroke-linecap: square"/>
     </g>
     <g id="line2d_6">
      <defs>
       <path id="m8359f8a63f" d="M 0 0 
L -3.5 0 
" style="stroke: #000000; stroke-width: 0.8"/>
      </defs>
      <g>
       <use xlink:href="#m8359f8a63f" x="47.72" y="390.04" style="stroke: #000000; stroke-width: 0.8"/>
      </g>
     </g>
     <g id="text_6">
      <!-- 0.0 -->
      <g transform="translate(24.816875 393.839219) scale(0.1 -0.1)">
       <defs>
        <path id="DejaVuSans-30" d="M 2034 4250 
Q 1547 4250 1301 3770 
Q 1056 3291 1056 2328 
Q 1056 1369 1301 889 
Q 1547 409 2034 409 
Q 2525 409 2770 889 
Q 3016 1369 3016 2328 
Q 3016 3291 2770 3770 
Q 2525 4250 2034 4250 
z
M 2034 4750 
Q 2819 4750 3233 4129 
Q 3647 3509 3647 2328 
Q 3647 1150 3233 529 
Q 2819 -91 2034 -91 
Q 1250 -91 836 529 
Q 422 1150 422 2328 
Q 422 3509 836 4129 
Q 1250 4750 2034 4750 
z
" transform="scale(0.015625)"/>
        <path id="DejaVuSans-2e" d="M 684 794 
L 1344 794 
L 1344 0 
L 684 0 
L 684 794 
z
" transform="scale(0.015625)"/>
       </defs>
       <use xlink:href="#DejaVuSans-30"/>
       <use xlink:href="#DejaVuSans-2e" transform="translate(63.623047 0)"/>
       <use xlink:href="#DejaVuSans-30" transform="translate(95.410156 0)"/>
      </g>
     </g>
    </g>
    <g id="ytick_2">
     <g id="line2d_7">
      <path d="M 47.72 336.36655 
L 709.2 336.36655 
" clip-path="url(#pc23f0727ad)" style="fill: none; stroke: #b0b0b0; stroke-opacity: 0.28; stroke-width: 0.8; stroke-linecap: square"/>
     </g>
     <g id="line2d_8">
      <g>
       <use xlink:href="#m8359f8a63f" x="47.72" y="336.36655" style="stroke: #000000; stroke-width: 0.8"/>
      </g>
     </g>
     <g id="text_7">
      <!-- 0.5 -->
      <g transform="translate(24.816875 340.165769) scale(0.1 -0.1)">
       <defs>
        <path id="DejaVuSans-35" d="M 691 4666 
L 3169 4666 
L 3169 4134 
L 1269 4134 
L 1269 2991 
Q 1406 3038 1543 3061 
Q 1681 3084 1819 3084 
Q 2600 3084 3056 2656 
Q 3513 2228 3513 1497 
Q 3513 744 3044 326 
Q 2575 -91 1722 -91 
Q 1428 -91 1123 -41 
Q 819 9 494 109 
L 494 744 
Q 775 591 1075 516 
Q 1375 441 1709 441 
Q 2250 441 2565 725 
Q 2881 1009 2881 1497 
Q 2881 1984 2565 2268 
Q 2250 2553 1709 2553 
Q 1456 2553 1204 2497 
Q 953 2441 691 2322 
L 691 4666 
z
" transform="scale(0.015625)"/>
       </defs>
       <use xlink:href="#DejaVuSans-30"/>
       <use xlink:href="#DejaVuSans-2e" transform="translate(63.623047 0)"/>
       <use xlink:href="#DejaVuSans-35" transform="translate(95.410156 0)"/>
      </g>
     </g>
    </g>
    <g id="ytick_3">
     <g id="line2d_9">
      <path d="M 47.72 282.6931 
L 709.2 282.6931 
" clip-path="url(#pc23f0727ad)" style="fill: none; stroke: #b0b0b0; stroke-opacity: 0.28; stroke-width: 0.8; stroke-linecap: square"/>
     </g>
     <g id="line2d_10">
      <g>
       <use xlink:href="#m8359f8a63f" x="47.72" y="282.6931" style="stroke: #000000; stroke-width: 0.8"/>
      </g>
     </g>
     <g id="text_8">
      <!-- 1.0 -->
      <g transform="translate(24.816875 286.492319) scale(0.1 -0.1)">
       <defs>
        <path id="DejaVuSans-31" d="M 794 531 
L 1825 531 
L 1825 4091 
L 703 3866 
L 703 4441 
L 1819 4666 
L 2450 4666 
L 2450 531 
L 3481 531 
L 3481 0 
L 794 0 
L 794 531 
z
" transform="scale(0.015625)"/>
       </defs>
       <use xlink:href="#DejaVuSans-31"/>
       <use xlink:href="#DejaVuSans-2e" transform="translate(63.623047 0)"/>
       <use xlink:href="#DejaVuSans-30" transform="translate(95.410156 0)"/>
      </g>
     </g>
    </g>
    <g id="ytick_4">
     <g id="line2d_11">
      <path d="M 47.72 229.01965 
L 709.2 229.01965 
" clip-path="url(#pc23f0727ad)" style="fill: none; stroke: #b0b0b0; stroke-opacity: 0.28; stroke-width: 0.8; stroke-linecap: square"/>
     </g>
     <g id="line2d_12">
      <g>
       <use xlink:href="#m8359f8a63f" x="47.72" y="229.01965" style="stroke: #000000; stroke-width: 0.8"/>
      </g>
     </g>
     <g id="text_9">
      <!-- 1.5 -->
      <g transform="translate(24.816875 232.818869) scale(0.1 -0.1)">
       <use xlink:href="#DejaVuSans-31"/>
       <use xlink:href="#DejaVuSans-2e" transform="translate(63.623047 0)"/>
       <use xlink:href="#DejaVuSans-35" transform="translate(95.410156 0)"/>
      </g>
     </g>
    </g>
    <g id="ytick_5">
     <g id="line2d_13">
      <path d="M 47.72 175.3462 
L 709.2 175.3462 
" clip-path="url(#pc23f0727ad)" style="fill: none; stroke: #b0b0b0; stroke-opacity: 0.28; stroke-width: 0.8; stroke-linecap: square"/>
     </g>
     <g id="line2d_14">
      <g>
       <use xlink:href="#m8359f8a63f" x="47.72" y="175.3462" style="stroke: #000000; stroke-width: 0.8"/>
      </g>
     </g>
     <g id="text_10">
      <!-- 2.0 -->
      <g transform="translate(24.816875 179.145419) scale(0.1 -0.1)">
       <defs>
        <path id="DejaVuSans-32" d="M 1228 531 
L 3431 531 
L 3431 0 
L 469 0 
L 469 531 
Q 828 903 1448 1529 
Q 2069 2156 2228 2338 
Q 2531 2678 2651 2914 
Q 2772 3150 2772 3378 
Q 2772 3750 2511 3984 
Q 2250 4219 1831 4219 
Q 1534 4219 1204 4116 
Q 875 4013 500 3803 
L 500 4441 
Q 881 4594 1212 4672 
Q 1544 4750 1819 4750 
Q 2544 4750 2975 4387 
Q 3406 4025 3406 3419 
Q 3406 3131 3298 2873 
Q 3191 2616 2906 2266 
Q 2828 2175 2409 1742 
Q 1991 1309 1228 531 
z
" transform="scale(0.015625)"/>
       </defs>
       <use xlink:href="#DejaVuSans-32"/>
       <use xlink:href="#DejaVuSans-2e" transform="translate(63.623047 0)"/>
       <use xlink:href="#DejaVuSans-30" transform="translate(95.410156 0)"/>
      </g>
     </g>
    </g>
    <g id="ytick_6">
     <g id="line2d_15">
      <path d="M 47.72 121.67275 
L 709.2 121.67275 
" clip-path="url(#pc23f0727ad)" style="fill: none; stroke: #b0b0b0; stroke-opacity: 0.28; stroke-width: 0.8; stroke-linecap: square"/>
     </g>
     <g id="line2d_16">
      <g>
       <use xlink:href="#m8359f8a63f" x="47.72" y="121.67275" style="stroke: #000000; stroke-width: 0.8"/>
      </g>
     </g>
     <g id="text_11">
      <!-- 2.5 -->
      <g transform="translate(24.816875 125.471969) scale(0.1 -0.1)">
       <use xlink:href="#DejaVuSans-32"/>
       <use xlink:href="#DejaVuSans-2e" transform="translate(63.623047 0)"/>
       <use xlink:href="#DejaVuSans-35" transform="translate(95.410156 0)"/>
      </g>
     </g>
    </g>
    <g id="ytick_7">
     <g id="line2d_17">
      <path d="M 47.72 67.9993 
L 709.2 67.9993 
" clip-path="url(#pc23f0727ad)" style="fill: none; stroke: #b0b0b0; stroke-opacity: 0.28; stroke-width: 0.8; stroke-linecap: square"/>
     </g>
     <g id="line2d_18">
      <g>
       <use xlink:href="#m8359f8a63f" x="47.72" y="67.9993" style="stroke: #000000; stroke-width: 0.8"/>
      </g>
     </g>
     <g id="text_12">
      <!-- 3.0 -->
      <g transform="translate(24.816875 71.798519) scale(0.1 -0.1)">
       <defs>
        <path id="DejaVuSans-33" d="M 2597 2516 
Q 3050 2419 3304 2112 
Q 3559 1806 3559 1356 
Q 3559 666 3084 287 
Q 2609 -91 1734 -91 
Q 1441 -91 1130 -33 
Q 819 25 488 141 
L 488 750 
Q 750 597 1062 519 
Q 1375 441 1716 441 
Q 2309 441 2620 675 
Q 2931 909 2931 1356 
Q 2931 1769 2642 2001 
Q 2353 2234 1838 2234 
L 1294 2234 
L 1294 2753 
L 1863 2753 
Q 2328 2753 2575 2939 
Q 2822 3125 2822 3475 
Q 2822 3834 2567 4026 
Q 2313 4219 1838 4219 
Q 1578 4219 1281 4162 
Q 984 4106 628 3988 
L 628 4550 
Q 988 4650 1302 4700 
Q 1616 4750 1894 4750 
Q 2613 4750 3031 4423 
Q 3450 4097 3450 3541 
Q 3450 3153 3228 2886 
Q 3006 2619 2597 2516 
z
" transform="scale(0.015625)"/>
       </defs>
       <use xlink:href="#DejaVuSans-33"/>
       <use xlink:href="#DejaVuSans-2e" transform="translate(63.623047 0)"/>
       <use xlink:href="#DejaVuSans-30" transform="translate(95.410156 0)"/>
      </g>
     </g>
    </g>
    <g id="text_13">
     <!-- Predicted travel time (ms) -->
     <g transform="translate(18.737187 273.874844) rotate(-90) scale(0.1 -0.1)">
      <defs>
       <path id="DejaVuSans-50" d="M 1259 4147 
L 1259 2394 
L 2053 2394 
Q 2494 2394 2734 2622 
Q 2975 2850 2975 3272 
Q 2975 3691 2734 3919 
Q 2494 4147 2053 4147 
L 1259 4147 
z
M 628 4666 
L 2053 4666 
Q 2838 4666 3239 4311 
Q 3641 3956 3641 3272 
Q 3641 2581 3239 2228 
Q 2838 1875 2053 1875 
L 1259 1875 
L 1259 0 
L 628 0 
L 628 4666 
z
" transform="scale(0.015625)"/>
       <path id="DejaVuSans-63" d="M 3122 3366 
L 3122 2828 
Q 2878 2963 2633 3030 
Q 2388 3097 2138 3097 
Q 1578 3097 1268 2742 
Q 959 2388 959 1747 
Q 959 1106 1268 751 
Q 1578 397 2138 397 
Q 2388 397 2633 464 
Q 2878 531 3122 666 
L 3122 134 
Q 2881 22 2623 -34 
Q 2366 -91 2075 -91 
Q 1284 -91 818 406 
Q 353 903 353 1747 
Q 353 2603 823 3093 
Q 1294 3584 2113 3584 
Q 2378 3584 2631 3529 
Q 2884 3475 3122 3366 
z
" transform="scale(0.015625)"/>
       <path id="DejaVuSans-20" transform="scale(0.015625)"/>
       <path id="DejaVuSans-76" d="M 191 3500 
L 800 3500 
L 1894 563 
L 2988 3500 
L 3597 3500 
L 2284 0 
L 1503 0 
L 191 3500 
z
" transform="scale(0.015625)"/>
       <path id="DejaVuSans-28" d="M 1984 4856 
Q 1566 4138 1362 3434 
Q 1159 2731 1159 2009 
Q 1159 1288 1364 580 
Q 1569 -128 1984 -844 
L 1484 -844 
Q 1016 -109 783 600 
Q 550 1309 550 2009 
Q 550 2706 781 3412 
Q 1013 4119 1484 4856 
L 1984 4856 
z
" transform="scale(0.015625)"/>
       <path id="DejaVuSans-29" d="M 513 4856 
L 1013 4856 
Q 1481 4119 1714 3412 
Q 1947 2706 1947 2009 
Q 1947 1309 1714 600 
Q 1481 -109 1013 -844 
L 513 -844 
Q 928 -128 1133 580 
Q 1338 1288 1338 2009 
Q 1338 2731 1133 3434 
Q 928 4138 513 4856 
z
" transform="scale(0.015625)"/>
      </defs>
      <use xlink:href="#DejaVuSans-50"/>
      <use xlink:href="#DejaVuSans-72" transform="translate(58.552734 0)"/>
      <use xlink:href="#DejaVuSans-65" transform="translate(97.416016 0)"/>
      <use xlink:href="#DejaVuSans-64" transform="translate(158.939453 0)"/>
      <use xlink:href="#DejaVuSans-69" transform="translate(222.416016 0)"/>
      <use xlink:href="#DejaVuSans-63" transform="translate(250.199219 0)"/>
      <use xlink:href="#DejaVuSans-74" transform="translate(305.179688 0)"/>
      <use xlink:href="#DejaVuSans-65" transform="translate(344.388672 0)"/>
      <use xlink:href="#DejaVuSans-64" transform="translate(405.912109 0)"/>
      <use xlink:href="#DejaVuSans-20" transform="translate(469.388672 0)"/>
      <use xlink:href="#DejaVuSans-74" transform="translate(501.175781 0)"/>
      <use xlink:href="#DejaVuSans-72" transform="translate(540.384766 0)"/>
      <use xlink:href="#DejaVuSans-61" transform="translate(581.498047 0)"/>
      <use xlink:href="#DejaVuSans-76" transform="translate(642.777344 0)"/>
      <use xlink:href="#DejaVuSans-65" transform="translate(701.957031 0)"/>
      <use xlink:href="#DejaVuSans-6c" transform="translate(763.480469 0)"/>
      <use xlink:href="#DejaVuSans-20" transform="translate(791.263672 0)"/>
      <use xlink:href="#DejaVuSans-74" transform="translate(823.050781 0)"/>
      <use xlink:href="#DejaVuSans-69" transform="translate(862.259766 0)"/>
      <use xlink:href="#DejaVuSans-6d" transform="translate(890.042969 0)"/>
      <use xlink:href="#DejaVuSans-65" transform="translate(987.455078 0)"/>
      <use xlink:href="#DejaVuSans-20" transform="translate(1048.978516 0)"/>
      <use xlink:href="#DejaVuSans-28" transform="translate(1080.765625 0)"/>
      <use xlink:href="#DejaVuSans-6d" transform="translate(1119.779297 0)"/>
      <use xlink:href="#DejaVuSans-73" transform="translate(1217.191406 0)"/>
      <use xlink:href="#DejaVuSans-29" transform="translate(1269.291016 0)"/>
     </g>
    </g>
   </g>
   <g id="LineCollection_1">
    <path d="M 93.298167 381.666801 
L 93.298167 379.159072 
" clip-path="url(#pc23f0727ad)" style="fill: none; stroke: #000000; stroke-width: 1.5"/>
    <path d="M 252.384266 383.078073 
L 252.384266 379.487014 
" clip-path="url(#pc23f0727ad)" style="fill: none; stroke: #000000; stroke-width: 1.5"/>
    <path d="M 411.470366 382.347327 
L 411.470366 378.545338 
" clip-path="url(#pc23f0727ad)" style="fill: none; stroke: #000000; stroke-width: 1.5"/>
    <path d="M 570.556465 382.579218 
L 570.556465 378.380066 
" clip-path="url(#pc23f0727ad)" style="fill: none; stroke: #000000; stroke-width: 1.5"/>
   </g>
   <g id="line2d_19">
    <defs>
     <path id="m0294488fea" d="M 3 0 
L -3 -0 
" style="stroke: #000000"/>
    </defs>
    <g clip-path="url(#pc23f0727ad)">
     <use xlink:href="#m0294488fea" x="93.298167" y="381.666801" style="fill: #1f77b4; stroke: #000000"/>
     <use xlink:href="#m0294488fea" x="252.384266" y="383.078073" style="fill: #1f77b4; stroke: #000000"/>
     <use xlink:href="#m0294488fea" x="411.470366" y="382.347327" style="fill: #1f77b4; stroke: #000000"/>
     <use xlink:href="#m0294488fea" x="570.556465" y="382.579218" style="fill: #1f77b4; stroke: #000000"/>
    </g>
   </g>
   <g id="line2d_20">
    <g clip-path="url(#pc23f0727ad)">
     <use xlink:href="#m0294488fea" x="93.298167" y="379.159072" style="fill: #1f77b4; stroke: #000000"/>
     <use xlink:href="#m0294488fea" x="252.384266" y="379.487014" style="fill: #1f77b4; stroke: #000000"/>
     <use xlink:href="#m0294488fea" x="411.470366" y="378.545338" style="fill: #1f77b4; stroke: #000000"/>
     <use xlink:href="#m0294488fea" x="570.556465" y="378.380066" style="fill: #1f77b4; stroke: #000000"/>
    </g>
   </g>
   <g id="LineCollection_2">
    <path d="M 124.319957 233.126582 
L 124.319957 48.486629 
" clip-path="url(#pc23f0727ad)" style="fill: none; stroke: #000000; stroke-width: 1.5"/>
    <path d="M 283.406056 230.056121 
L 283.406056 71.370429 
" clip-path="url(#pc23f0727ad)" style="fill: none; stroke: #000000; stroke-width: 1.5"/>
    <path d="M 442.492155 189.85038 
L 442.492155 80.265805 
" clip-path="url(#pc23f0727ad)" style="fill: none; stroke: #000000; stroke-width: 1.5"/>
    <path d="M 601.578254 213.41373 
L 601.578254 44.173333 
" clip-path="url(#pc23f0727ad)" style="fill: none; stroke: #000000; stroke-width: 1.5"/>
   </g>
   <g id="line2d_21">
    <g clip-path="url(#pc23f0727ad)">
     <use xlink:href="#m0294488fea" x="124.319957" y="233.126582" style="fill: #1f77b4; stroke: #000000"/>
     <use xlink:href="#m0294488fea" x="283.406056" y="230.056121" style="fill: #1f77b4; stroke: #000000"/>
     <use xlink:href="#m0294488fea" x="442.492155" y="189.85038" style="fill: #1f77b4; stroke: #000000"/>
     <use xlink:href="#m0294488fea" x="601.578254" y="213.41373" style="fill: #1f77b4; stroke: #000000"/>
    </g>
   </g>
   <g id="line2d_22">
    <g clip-path="url(#pc23f0727ad)">
     <use xlink:href="#m0294488fea" x="124.319957" y="48.486629" style="fill: #1f77b4; stroke: #000000"/>
     <use xlink:href="#m0294488fea" x="283.406056" y="71.370429" style="fill: #1f77b4; stroke: #000000"/>
     <use xlink:href="#m0294488fea" x="442.492155" y="80.265805" style="fill: #1f77b4; stroke: #000000"/>
     <use xlink:href="#m0294488fea" x="601.578254" y="44.173333" style="fill: #1f77b4; stroke: #000000"/>
    </g>
   </g>
   <g id="LineCollection_3">
    <path d="M 155.341746 279.471648 
L 155.341746 208.24761 
" clip-path="url(#pc23f0727ad)" style="fill: none; stroke: #000000; stroke-width: 1.5"/>
    <path d="M 314.427845 282.800114 
L 314.427845 224.732484 
" clip-path="url(#pc23f0727ad)" style="fill: none; stroke: #000000; stroke-width: 1.5"/>
    <path d="M 473.513944 260.904428 
L 473.513944 223.905558 
" clip-path="url(#pc23f0727ad)" style="fill: none; stroke: #000000; stroke-width: 1.5"/>
    <path d="M 632.600043 268.588244 
L 632.600043 212.280371 
" clip-path="url(#pc23f0727ad)" style="fill: none; stroke: #000000; stroke-width: 1.5"/>
   </g>
   <g id="line2d_23">
    <g clip-path="url(#pc23f0727ad)">
     <use xlink:href="#m0294488fea" x="155.341746" y="279.471648" style="fill: #1f77b4; stroke: #000000"/>
     <use xlink:href="#m0294488fea" x="314.427845" y="282.800114" style="fill: #1f77b4; stroke: #000000"/>
     <use xlink:href="#m0294488fea" x="473.513944" y="260.904428" style="fill: #1f77b4; stroke: #000000"/>
     <use xlink:href="#m0294488fea" x="632.600043" y="268.588244" style="fill: #1f77b4; stroke: #000000"/>
    </g>
   </g>
   <g id="line2d_24">
    <g clip-path="url(#pc23f0727ad)">
     <use xlink:href="#m0294488fea" x="155.341746" y="208.24761" style="fill: #1f77b4; stroke: #000000"/>
     <use xlink:href="#m0294488fea" x="314.427845" y="224.732484" style="fill: #1f77b4; stroke: #000000"/>
     <use xlink:href="#m0294488fea" x="473.513944" y="223.905558" style="fill: #1f77b4; stroke: #000000"/>
     <use xlink:href="#m0294488fea" x="632.600043" y="212.280371" style="fill: #1f77b4; stroke: #000000"/>
    </g>
   </g>
   <g id="LineCollection_4">
    <path d="M 186.363535 379.546441 
L 186.363535 376.302079 
" clip-path="url(#pc23f0727ad)" style="fill: none; stroke: #000000; stroke-width: 1.5"/>
    <path d="M 345.449634 381.268843 
L 345.449634 376.489292 
" clip-path="url(#pc23f0727ad)" style="fill: none; stroke: #000000; stroke-width: 1.5"/>
    <path d="M 504.535734 380.351679 
L 504.535734 375.810831 
" clip-path="url(#pc23f0727ad)" style="fill: none; stroke: #000000; stroke-width: 1.5"/>
    <path d="M 663.621833 380.537002 
L 663.621833 375.095557 
" clip-path="url(#pc23f0727ad)" style="fill: none; stroke: #000000; stroke-width: 1.5"/>
   </g>
   <g id="line2d_25">
    <g clip-path="url(#pc23f0727ad)">
     <use xlink:href="#m0294488fea" x="186.363535" y="379.546441" style="fill: #1f77b4; stroke: #000000"/>
     <use xlink:href="#m0294488fea" x="345.449634" y="381.268843" style="fill: #1f77b4; stroke: #000000"/>
     <use xlink:href="#m0294488fea" x="504.535734" y="380.351679" style="fill: #1f77b4; stroke: #000000"/>
     <use xlink:href="#m0294488fea" x="663.621833" y="380.537002" style="fill: #1f77b4; stroke: #000000"/>
    </g>
   </g>
   <g id="line2d_26">
    <g clip-path="url(#pc23f0727ad)">
     <use xlink:href="#m0294488fea" x="186.363535" y="376.302079" style="fill: #1f77b4; stroke: #000000"/>
     <use xlink:href="#m0294488fea" x="345.449634" y="376.489292" style="fill: #1f77b4; stroke: #000000"/>
     <use xlink:href="#m0294488fea" x="504.535734" y="375.810831" style="fill: #1f77b4; stroke: #000000"/>
     <use xlink:href="#m0294488fea" x="663.621833" y="375.095557" style="fill: #1f77b4; stroke: #000000"/>
    </g>
   </g>
   <g id="patch_19">
    <path d="M 47.72 390.04 
L 47.72 26.88 
" style="fill: none; stroke: #000000; stroke-width: 0.8; stroke-linejoin: miter; stroke-linecap: square"/>
   </g>
   <g id="patch_20">
    <path d="M 709.2 390.04 
L 709.2 26.88 
" style="fill: none; stroke: #000000; stroke-width: 0.8; stroke-linejoin: miter; stroke-linecap: square"/>
   </g>
   <g id="patch_21">
    <path d="M 47.72 390.04 
L 709.2 390.04 
" style="fill: none; stroke: #000000; stroke-width: 0.8; stroke-linejoin: miter; stroke-linecap: square"/>
   </g>
   <g id="patch_22">
    <path d="M 47.72 26.88 
L 709.2 26.88 
" style="fill: none; stroke: #000000; stroke-width: 0.8; stroke-linejoin: miter; stroke-linecap: square"/>
   </g>
   <g id="text_14">
    <!-- Travel Time by Material and Model -->
    <g transform="translate(275.3725 20.88) scale(0.12 -0.12)">
     <defs>
      <path id="DejaVuSans-54" d="M -19 4666 
L 3928 4666 
L 3928 4134 
L 2272 4134 
L 2272 0 
L 1638 0 
L 1638 4134 
L -19 4134 
L -19 4666 
z
" transform="scale(0.015625)"/>
      <path id="DejaVuSans-79" d="M 2059 -325 
Q 1816 -950 1584 -1140 
Q 1353 -1331 966 -1331 
L 506 -1331 
L 506 -850 
L 844 -850 
Q 1081 -850 1212 -737 
Q 1344 -625 1503 -206 
L 1606 56 
L 191 3500 
L 800 3500 
L 1894 763 
L 2988 3500 
L 3597 3500 
L 2059 -325 
z
" transform="scale(0.015625)"/>
     </defs>
     <use xlink:href="#DejaVuSans-54"/>
     <use xlink:href="#DejaVuSans-72" transform="translate(46.333984 0)"/>
     <use xlink:href="#DejaVuSans-61" transform="translate(87.447266 0)"/>
     <use xlink:href="#DejaVuSans-76" transform="translate(148.726562 0)"/>
     <use xlink:href="#DejaVuSans-65" transform="translate(207.90625 0)"/>
     <use xlink:href="#DejaVuSans-6c" transform="translate(269.429688 0)"/>
     <use xlink:href="#DejaVuSans-20" transform="translate(297.212891 0)"/>
     <use xlink:href="#DejaVuSans-54" transform="translate(329 0)"/>
     <use xlink:href="#DejaVuSans-69" transform="translate(386.958984 0)"/>
     <use xlink:href="#DejaVuSans-6d" transform="translate(414.742188 0)"/>
     <use xlink:href="#DejaVuSans-65" transform="translate(512.154297 0)"/>
     <use xlink:href="#DejaVuSans-20" transform="translate(573.677734 0)"/>
     <use xlink:href="#DejaVuSans-62" transform="translate(605.464844 0)"/>
     <use xlink:href="#DejaVuSans-79" transform="translate(668.941406 0)"/>
     <use xlink:href="#DejaVuSans-20" transform="translate(728.121094 0)"/>
     <use xlink:href="#DejaVuSans-4d" transform="translate(759.908203 0)"/>
     <use xlink:href="#DejaVuSans-61" transform="translate(846.1875 0)"/>
     <use xlink:href="#DejaVuSans-74" transform="translate(907.466797 0)"/>
     <use xlink:href="#DejaVuSans-65" transform="translate(946.675781 0)"/>
     <use xlink:href="#DejaVuSans-72" transform="translate(1008.199219 0)"/>
     <use xlink:href="#DejaVuSans-69" transform="translate(1049.3125 0)"/>
     <use xlink:href="#DejaVuSans-61" transform="translate(1077.095703 0)"/>
     <use xlink:href="#DejaVuSans-6c" transform="translate(1138.375 0)"/>
     <use xlink:href="#DejaVuSans-20" transform="translate(1166.158203 0)"/>
     <use xlink:href="#DejaVuSans-61" transform="translate(1197.945312 0)"/>
     <use xlink:href="#DejaVuSans-6e" transform="translate(1259.224609 0)"/>
     <use xlink:href="#DejaVuSans-64" transform="translate(1322.603516 0)"/>
     <use xlink:href="#DejaVuSans-20" transform="translate(1386.080078 0)"/>
     <use xlink:href="#DejaVuSans-4d" transform="translate(1417.867188 0)"/>
     <use xlink:href="#DejaVuSans-6f" transform="translate(1504.146484 0)"/>
     <use xlink:href="#DejaVuSans-64" transform="translate(1565.328125 0)"/>
     <use xlink:href="#DejaVuSans-65" transform="translate(1628.804688 0)"/>
     <use xlink:href="#DejaVuSans-6c" transform="translate(1690.328125 0)"/>
    </g>
   </g>
   <g id="legend_1">
    <g id="patch_23">
     <path d="M 610.914062 93.5925 
L 702.2 93.5925 
Q 704.2 93.5925 704.2 91.5925 
L 704.2 33.88 
Q 704.2 31.88 702.2 31.88 
L 610.914062 31.88 
Q 608.914062 31.88 608.914062 33.88 
L 608.914062 91.5925 
Q 608.914062 93.5925 610.914062 93.5925 
z
" style="fill: #ffffff; opacity: 0.8; stroke: #cccccc; stroke-linejoin: miter"/>
    </g>
    <g id="patch_24">
     <path d="M 612.914062 43.478437 
L 632.914062 43.478437 
L 632.914062 36.478437 
L 612.914062 36.478437 
z
" style="fill: #2563eb; opacity: 0.86"/>
    </g>
    <g id="text_15">
     <!-- pinn -->
     <g transform="translate(640.914062 43.478437) scale(0.1 -0.1)">
      <defs>
       <path id="DejaVuSans-70" d="M 1159 525 
L 1159 -1331 
L 581 -1331 
L 581 3500 
L 1159 3500 
L 1159 2969 
Q 1341 3281 1617 3432 
Q 1894 3584 2278 3584 
Q 2916 3584 3314 3078 
Q 3713 2572 3713 1747 
Q 3713 922 3314 415 
Q 2916 -91 2278 -91 
Q 1894 -91 1617 61 
Q 1341 213 1159 525 
z
M 3116 1747 
Q 3116 2381 2855 2742 
Q 2594 3103 2138 3103 
Q 1681 3103 1420 2742 
Q 1159 2381 1159 1747 
Q 1159 1113 1420 752 
Q 1681 391 2138 391 
Q 2594 391 2855 752 
Q 3116 1113 3116 1747 
z
" transform="scale(0.015625)"/>
      </defs>
      <use xlink:href="#DejaVuSans-70"/>
      <use xlink:href="#DejaVuSans-69" transform="translate(63.476562 0)"/>
      <use xlink:href="#DejaVuSans-6e" transform="translate(91.259766 0)"/>
      <use xlink:href="#DejaVuSans-6e" transform="translate(154.638672 0)"/>
     </g>
    </g>
    <g id="patch_25">
     <path d="M 612.914062 58.156563 
L 632.914062 58.156563 
L 632.914062 51.156563 
L 612.914062 51.156563 
z
" style="fill: #059669; opacity: 0.86"/>
    </g>
    <g id="text_16">
     <!-- mgn -->
     <g transform="translate(640.914062 58.156563) scale(0.1 -0.1)">
      <use xlink:href="#DejaVuSans-6d"/>
      <use xlink:href="#DejaVuSans-67" transform="translate(97.412109 0)"/>
      <use xlink:href="#DejaVuSans-6e" transform="translate(160.888672 0)"/>
     </g>
    </g>
    <g id="patch_26">
     <path d="M 612.914062 72.834687 
L 632.914062 72.834687 
L 632.914062 65.834687 
L 612.914062 65.834687 
z
" style="fill: #dc2626; opacity: 0.86"/>
    </g>
    <g id="text_17">
     <!-- fno -->
     <g transform="translate(640.914062 72.834687) scale(0.1 -0.1)">
      <defs>
       <path id="DejaVuSans-66" d="M 2375 4863 
L 2375 4384 
L 1825 4384 
Q 1516 4384 1395 4259 
Q 1275 4134 1275 3809 
L 1275 3500 
L 2222 3500 
L 2222 3053 
L 1275 3053 
L 1275 0 
L 697 0 
L 697 3053 
L 147 3053 
L 147 3500 
L 697 3500 
L 697 3744 
Q 697 4328 969 4595 
Q 1241 4863 1831 4863 
L 2375 4863 
z
" transform="scale(0.015625)"/>
      </defs>
      <use xlink:href="#DejaVuSans-66"/>
      <use xlink:href="#DejaVuSans-6e" transform="translate(35.205078 0)"/>
      <use xlink:href="#DejaVuSans-6f" transform="translate(98.583984 0)"/>
     </g>
    </g>
    <g id="patch_27">
     <path d="M 612.914062 87.512812 
L 632.914062 87.512812 
L 632.914062 80.512812 
L 612.914062 80.512812 
z
" style="fill: #7c3aed; opacity: 0.86"/>
    </g>
    <g id="text_18">
     <!-- transformer -->
     <g transform="translate(640.914062 87.512812) scale(0.1 -0.1)">
      <use xlink:href="#DejaVuSans-74"/>
      <use xlink:href="#DejaVuSans-72" transform="translate(39.208984 0)"/>
      <use xlink:href="#DejaVuSans-61" transform="translate(80.322266 0)"/>
      <use xlink:href="#DejaVuSans-6e" transform="translate(141.601562 0)"/>
      <use xlink:href="#DejaVuSans-73" transform="translate(204.980469 0)"/>
      <use xlink:href="#DejaVuSans-66" transform="translate(257.080078 0)"/>
      <use xlink:href="#DejaVuSans-6f" transform="translate(292.285156 0)"/>
      <use xlink:href="#DejaVuSans-72" transform="translate(353.466797 0)"/>
      <use xlink:href="#DejaVuSans-6d" transform="translate(392.830078 0)"/>
      <use xlink:href="#DejaVuSans-65" transform="translate(490.242188 0)"/>
      <use xlink:href="#DejaVuSans-72" transform="translate(551.765625 0)"/>
     </g>
    </g>
   </g>
  </g>
 </g>
 <defs>
  <clipPath id="pc23f0727ad">
   <rect x="47.72" y="26.88" width="661.48" height="363.16"/>
  </clipPath>
 </defs>
</svg>
