<svg width="96" height="96" viewBox="0 0 96 96" fill="none" xmlns="http://www.w3.org/2000/svg">
  <rect x="8" y="8" width="80" height="80" rx="24" fill="url(#paint0_linear)" fill-opacity="0.18" stroke="url(#paint1_linear)"/>
  <path d="M22 54C29 45 35 42 42 42C49 42 54 47 60 47C66 47 72 42 74 36" stroke="#72F7D4" stroke-width="4" stroke-linecap="round"/>
  <path d="M22 66C29 57 35 54 42 54C49 54 54 59 60 59C66 59 72 54 74 48" stroke="#F8B66A" stroke-width="3.2" stroke-linecap="round" opacity="0.8"/>
  <circle cx="24" cy="28" r="4" fill="#72F7D4"/>
  <circle cx="72" cy="28" r="4" fill="#F8B66A"/>
  <defs>
    <linearGradient id="paint0_linear" x1="8" y1="8" x2="88" y2="88" gradientUnits="userSpaceOnUse">
      <stop stop-color="#72F7D4"/>
      <stop offset="1" stop-color="#5A63FF"/>
    </linearGradient>
    <linearGradient id="paint1_linear" x1="18" y1="16" x2="86" y2="86" gradientUnits="userSpaceOnUse">
      <stop stop-color="#82F4D8"/>
      <stop offset="1" stop-color="#7880FF"/>
    </linearGradient>
  </defs>
</svg>
