<svg xmlns="http://www.w3.org/2000/svg" width="980" height="320" viewBox="0 0 980 320">
  <rect width="980" height="320" rx="18" fill="#111827" />
  <text x="44" y="24" fill="#f8fafc" font-size="18">Core Loss Components</text>
  <g><line x1="44" y1="44.00" x2="936" y2="44.00" stroke="#243042" stroke-width="1" /><text x="8" y="48.00" fill="#94a3b8" font-size="11">1.56e+19</text></g><g><line x1="44" y1="102.00" x2="936" y2="102.00" stroke="#243042" stroke-width="1" /><text x="8" y="106.00" fill="#94a3b8" font-size="11">1.17e+19</text></g><g><line x1="44" y1="160.00" x2="936" y2="160.00" stroke="#243042" stroke-width="1" /><text x="8" y="164.00" fill="#94a3b8" font-size="11">7.801e+18</text></g><g><line x1="44" y1="218.00" x2="936" y2="218.00" stroke="#243042" stroke-width="1" /><text x="8" y="222.00" fill="#94a3b8" font-size="11">3.9e+18</text></g><g><line x1="44" y1="276.00" x2="936" y2="276.00" stroke="#243042" stroke-width="1" /><text x="8" y="280.00" fill="#94a3b8" font-size="11">0</text></g>
  <g><line x1="44.00" y1="276" x2="44.00" y2="44" stroke="#1b2534" stroke-width="1" /><text x="34.00" y="308" fill="#94a3b8" font-size="11">1</text></g><g><line x1="267.00" y1="276" x2="267.00" y2="44" stroke="#1b2534" stroke-width="1" /><text x="257.00" y="308" fill="#94a3b8" font-size="11">5.75</text></g><g><line x1="490.00" y1="276" x2="490.00" y2="44" stroke="#1b2534" stroke-width="1" /><text x="480.00" y="308" fill="#94a3b8" font-size="11">10.5</text></g><g><line x1="713.00" y1="276" x2="713.00" y2="44" stroke="#1b2534" stroke-width="1" /><text x="703.00" y="308" fill="#94a3b8" font-size="11">15.25</text></g><g><line x1="936.00" y1="276" x2="936.00" y2="44" stroke="#1b2534" stroke-width="1" /><text x="926.00" y="308" fill="#94a3b8" font-size="11">20</text></g>
  <rect x="44" y="44" width="892" height="232" fill="none" stroke="#334155" stroke-width="1" />
  <polyline fill="none" stroke="#60a5fa" stroke-width="2.2" points="44.00,276.00 90.95,276.00 137.89,276.00 184.84,276.00 231.79,276.00 278.74,276.00 325.68,276.00 372.63,276.00 419.58,276.00 466.53,276.00 513.47,276.00 560.42,276.00 607.37,276.00 654.32,276.00 701.26,276.00 748.21,276.00 795.16,276.00 842.11,276.00 889.05,276.00 936.00,276.00" /><polyline fill="none" stroke="#34d399" stroke-width="2.2" points="44.00,276.00 90.95,276.00 137.89,276.00 184.84,276.00 231.79,276.00 278.74,276.00 325.68,276.00 372.63,276.00 419.58,276.00 466.53,276.00 513.47,276.00 560.42,276.00 607.37,276.00 654.32,276.00 701.26,276.00 748.21,276.00 795.16,276.00 842.11,276.00 889.05,276.00 936.00,276.00" /><polyline fill="none" stroke="#f59e0b" stroke-width="2.2" points="44.00,44.00 90.95,266.62 137.89,269.59 184.84,273.91 231.79,275.23 278.74,274.80 325.68,273.29 372.63,273.34 419.58,273.26 466.53,273.43 513.47,273.21 560.42,273.30 607.37,273.34 654.32,273.34 701.26,273.27 748.21,273.21 795.16,273.13 842.11,273.00 889.05,272.89 936.00,272.75" />
  <g><rect x="760" y="15" width="12" height="12" fill="#60a5fa" rx="2" /><text x="780" y="24" fill="#cbd5e1" font-size="12">supervised_loss</text></g><g><rect x="760" y="33" width="12" height="12" fill="#34d399" rx="2" /><text x="780" y="42" fill="#cbd5e1" font-size="12">wave_residual_loss</text></g><g><rect x="760" y="51" width="12" height="12" fill="#f59e0b" rx="2" /><text x="780" y="60" fill="#cbd5e1" font-size="12">thermal_residual_loss</text></g>
</svg>
