<svg xmlns="http://www.w3.org/2000/svg" width="980" height="320" viewBox="0 0 980 320">
  <rect width="980" height="320" rx="18" fill="#111827" />
  <text x="44" y="24" fill="#f8fafc" font-size="18">Normalized Loss Components</text>
  <g><line x1="44" y1="44.00" x2="936" y2="44.00" stroke="#243042" stroke-width="1" /><text x="8" y="48.00" fill="#94a3b8" font-size="11">22.36</text></g><g><line x1="44" y1="102.00" x2="936" y2="102.00" stroke="#243042" stroke-width="1" /><text x="8" y="106.00" fill="#94a3b8" font-size="11">16.78</text></g><g><line x1="44" y1="160.00" x2="936" y2="160.00" stroke="#243042" stroke-width="1" /><text x="8" y="164.00" fill="#94a3b8" font-size="11">11.21</text></g><g><line x1="44" y1="218.00" x2="936" y2="218.00" stroke="#243042" stroke-width="1" /><text x="8" y="222.00" fill="#94a3b8" font-size="11">5.628</text></g><g><line x1="44" y1="276.00" x2="936" y2="276.00" stroke="#243042" stroke-width="1" /><text x="8" y="280.00" fill="#94a3b8" font-size="11">0.0493</text></g>
  <g><line x1="44.00" y1="276" x2="44.00" y2="44" stroke="#1b2534" stroke-width="1" /><text x="34.00" y="308" fill="#94a3b8" font-size="11">1</text></g><g><line x1="267.00" y1="276" x2="267.00" y2="44" stroke="#1b2534" stroke-width="1" /><text x="257.00" y="308" fill="#94a3b8" font-size="11">5.75</text></g><g><line x1="490.00" y1="276" x2="490.00" y2="44" stroke="#1b2534" stroke-width="1" /><text x="480.00" y="308" fill="#94a3b8" font-size="11">10.5</text></g><g><line x1="713.00" y1="276" x2="713.00" y2="44" stroke="#1b2534" stroke-width="1" /><text x="703.00" y="308" fill="#94a3b8" font-size="11">15.25</text></g><g><line x1="936.00" y1="276" x2="936.00" y2="44" stroke="#1b2534" stroke-width="1" /><text x="926.00" y="308" fill="#94a3b8" font-size="11">20</text></g>
  <rect x="44" y="44" width="892" height="232" fill="none" stroke="#334155" stroke-width="1" />
  <polyline fill="none" stroke="#60a5fa" stroke-width="2.2" points="44.00,265.10 90.95,265.24 137.89,265.36 184.84,265.44 231.79,265.52 278.74,265.63 325.68,265.74 372.63,265.81 419.58,265.87 466.53,265.93 513.47,265.98 560.42,266.04 607.37,266.10 654.32,266.15 701.26,266.20 748.21,266.25 795.16,266.30 842.11,266.35 889.05,266.40 936.00,266.45" /><polyline fill="none" stroke="#34d399" stroke-width="2.2" points="44.00,261.55 90.95,271.32 137.89,273.29 184.84,273.71 231.79,275.23 278.74,275.74 325.68,275.33 372.63,275.63 419.58,275.81 466.53,275.90 513.47,275.94 560.42,275.96 607.37,275.95 654.32,275.96 701.26,275.98 748.21,275.98 795.16,275.99 842.11,275.99 889.05,276.00 936.00,276.00" /><polyline fill="none" stroke="#f59e0b" stroke-width="2.2" points="44.00,44.00 90.95,267.12 137.89,270.09 184.84,274.42 231.79,275.74 278.74,275.31 325.68,273.80 372.63,273.85 419.58,273.77 466.53,273.94 513.47,273.72 560.42,273.80 607.37,273.85 654.32,273.85 701.26,273.78 748.21,273.71 795.16,273.63 842.11,273.51 889.05,273.40 936.00,273.26" />
  <g><rect x="760" y="15" width="12" height="12" fill="#60a5fa" rx="2" /><text x="780" y="24" fill="#cbd5e1" font-size="12">normalized_supervised_loss</text></g><g><rect x="760" y="33" width="12" height="12" fill="#34d399" rx="2" /><text x="780" y="42" fill="#cbd5e1" font-size="12">normalized_wave_residual_loss</text></g><g><rect x="760" y="51" width="12" height="12" fill="#f59e0b" rx="2" /><text x="780" y="60" fill="#cbd5e1" font-size="12">normalized_thermal_residual_loss</text></g>
</svg>
