<svg xmlns="http://www.w3.org/2000/svg" width="980" height="320" viewBox="0 0 980 320">
  <rect width="980" height="320" rx="18" fill="#111827" />
  <text x="44" y="24" fill="#f8fafc" font-size="18">Learning Rate And Gradient Norm</text>
  <g><line x1="44" y1="44.00" x2="936" y2="44.00" stroke="#243042" stroke-width="1" /><text x="8" y="48.00" fill="#94a3b8" font-size="11">66.55</text></g><g><line x1="44" y1="102.00" x2="936" y2="102.00" stroke="#243042" stroke-width="1" /><text x="8" y="106.00" fill="#94a3b8" font-size="11">49.91</text></g><g><line x1="44" y1="160.00" x2="936" y2="160.00" stroke="#243042" stroke-width="1" /><text x="8" y="164.00" fill="#94a3b8" font-size="11">33.27</text></g><g><line x1="44" y1="218.00" x2="936" y2="218.00" stroke="#243042" stroke-width="1" /><text x="8" y="222.00" fill="#94a3b8" font-size="11">16.64</text></g><g><line x1="44" y1="276.00" x2="936" y2="276.00" stroke="#243042" stroke-width="1" /><text x="8" y="280.00" fill="#94a3b8" font-size="11">0.0005</text></g>
  <g><line x1="44.00" y1="276" x2="44.00" y2="44" stroke="#1b2534" stroke-width="1" /><text x="34.00" y="308" fill="#94a3b8" font-size="11">1</text></g><g><line x1="267.00" y1="276" x2="267.00" y2="44" stroke="#1b2534" stroke-width="1" /><text x="257.00" y="308" fill="#94a3b8" font-size="11">5.75</text></g><g><line x1="490.00" y1="276" x2="490.00" y2="44" stroke="#1b2534" stroke-width="1" /><text x="480.00" y="308" fill="#94a3b8" font-size="11">10.5</text></g><g><line x1="713.00" y1="276" x2="713.00" y2="44" stroke="#1b2534" stroke-width="1" /><text x="703.00" y="308" fill="#94a3b8" font-size="11">15.25</text></g><g><line x1="936.00" y1="276" x2="936.00" y2="44" stroke="#1b2534" stroke-width="1" /><text x="926.00" y="308" fill="#94a3b8" font-size="11">20</text></g>
  <rect x="44" y="44" width="892" height="232" fill="none" stroke="#334155" stroke-width="1" />
  <polyline fill="none" stroke="#a78bfa" stroke-width="2.2" points="44.00,276.00 90.95,276.00 137.89,276.00 184.84,276.00 231.79,276.00 278.74,276.00 325.68,276.00 372.63,276.00 419.58,276.00 466.53,276.00 513.47,276.00 560.42,276.00 607.37,276.00 654.32,276.00 701.26,276.00 748.21,276.00 795.16,276.00 842.11,276.00 889.05,276.00 936.00,276.00" /><polyline fill="none" stroke="#f472b6" stroke-width="2.2" points="44.00,44.00 90.95,226.87 137.89,235.05 184.84,254.38 231.79,263.45 278.74,262.69 325.68,252.75 372.63,253.14 419.58,254.10 466.53,254.28 513.47,254.60 560.42,254.68 607.37,254.40 654.32,254.10 701.26,253.60 748.21,252.97 795.16,252.37 842.11,251.39 889.05,250.42 936.00,249.31" />
  <g><rect x="760" y="15" width="12" height="12" fill="#a78bfa" rx="2" /><text x="780" y="24" fill="#cbd5e1" font-size="12">learning_rate</text></g><g><rect x="760" y="33" width="12" height="12" fill="#f472b6" rx="2" /><text x="780" y="42" fill="#cbd5e1" font-size="12">grad_norm</text></g>
</svg>
