<svg xmlns="http://www.w3.org/2000/svg" width="980" height="320" viewBox="0 0 980 320">
  <rect width="980" height="320" rx="18" fill="#111827" />
  <text x="44" y="24" fill="#f8fafc" font-size="18">Total Loss</text>
  <g><line x1="44" y1="44.00" x2="936" y2="44.00" stroke="#243042" stroke-width="1" /><text x="8" y="48.00" fill="#94a3b8" font-size="11">2.603</text></g><g><line x1="44" y1="102.00" x2="936" y2="102.00" stroke="#243042" stroke-width="1" /><text x="8" y="106.00" fill="#94a3b8" font-size="11">2.25</text></g><g><line x1="44" y1="160.00" x2="936" y2="160.00" stroke="#243042" stroke-width="1" /><text x="8" y="164.00" fill="#94a3b8" font-size="11">1.897</text></g><g><line x1="44" y1="218.00" x2="936" y2="218.00" stroke="#243042" stroke-width="1" /><text x="8" y="222.00" fill="#94a3b8" font-size="11">1.544</text></g><g><line x1="44" y1="276.00" x2="936" y2="276.00" stroke="#243042" stroke-width="1" /><text x="8" y="280.00" fill="#94a3b8" font-size="11">1.191</text></g>
  <g><line x1="44.00" y1="276" x2="44.00" y2="44" stroke="#1b2534" stroke-width="1" /><text x="34.00" y="308" fill="#94a3b8" font-size="11">1</text></g><g><line x1="267.00" y1="276" x2="267.00" y2="44" stroke="#1b2534" stroke-width="1" /><text x="257.00" y="308" fill="#94a3b8" font-size="11">5.75</text></g><g><line x1="490.00" y1="276" x2="490.00" y2="44" stroke="#1b2534" stroke-width="1" /><text x="480.00" y="308" fill="#94a3b8" font-size="11">10.5</text></g><g><line x1="713.00" y1="276" x2="713.00" y2="44" stroke="#1b2534" stroke-width="1" /><text x="703.00" y="308" fill="#94a3b8" font-size="11">15.25</text></g><g><line x1="936.00" y1="276" x2="936.00" y2="44" stroke="#1b2534" stroke-width="1" /><text x="926.00" y="308" fill="#94a3b8" font-size="11">20</text></g>
  <rect x="44" y="44" width="892" height="232" fill="none" stroke="#334155" stroke-width="1" />
  <polyline fill="none" stroke="#60a5fa" stroke-width="2.2" points="44.00,44.00 90.95,237.88 137.89,245.22 184.84,250.49 231.79,255.27 278.74,257.54 325.68,257.40 372.63,259.06 419.58,260.25 466.53,261.40 513.47,262.14 560.42,263.10 607.37,264.02 654.32,264.89 701.26,265.66 748.21,266.43 795.16,267.19 842.11,267.89 889.05,268.61 936.00,269.28" /><polyline fill="none" stroke="#f59e0b" stroke-width="2.2" points="44.00,235.44 90.95,249.91 137.89,252.31 184.84,259.80 231.79,263.88 278.74,264.47 325.68,267.10 372.63,264.95 419.58,267.88 466.53,269.97 513.47,270.84 560.42,271.43 607.37,271.97 654.32,272.58 701.26,273.28 748.21,273.86 795.16,274.36 842.11,274.92 889.05,275.50 936.00,276.00" />
  <g><rect x="760" y="15" width="12" height="12" fill="#60a5fa" rx="2" /><text x="780" y="24" fill="#cbd5e1" font-size="12">train_total_loss</text></g><g><rect x="760" y="33" width="12" height="12" fill="#f59e0b" rx="2" /><text x="780" y="42" fill="#cbd5e1" font-size="12">val_total_loss</text></g>
</svg>
