<svg xmlns="http://www.w3.org/2000/svg" width="980" height="320" viewBox="0 0 980 320">
  <rect width="980" height="320" rx="18" fill="#111827" />
  <text x="44" y="24" fill="#f8fafc" font-size="18">Core Loss Components</text>
  <g><line x1="44" y1="44.00" x2="936" y2="44.00" stroke="#243042" stroke-width="1" /><text x="8" y="48.00" fill="#94a3b8" font-size="11">1.044e+19</text></g><g><line x1="44" y1="102.00" x2="936" y2="102.00" stroke="#243042" stroke-width="1" /><text x="8" y="106.00" fill="#94a3b8" font-size="11">7.831e+18</text></g><g><line x1="44" y1="160.00" x2="936" y2="160.00" stroke="#243042" stroke-width="1" /><text x="8" y="164.00" fill="#94a3b8" font-size="11">5.22e+18</text></g><g><line x1="44" y1="218.00" x2="936" y2="218.00" stroke="#243042" stroke-width="1" /><text x="8" y="222.00" fill="#94a3b8" font-size="11">2.61e+18</text></g><g><line x1="44" y1="276.00" x2="936" y2="276.00" stroke="#243042" stroke-width="1" /><text x="8" y="280.00" fill="#94a3b8" font-size="11">0</text></g>
  <g><line x1="44.00" y1="276" x2="44.00" y2="44" stroke="#1b2534" stroke-width="1" /><text x="34.00" y="308" fill="#94a3b8" font-size="11">1</text></g><g><line x1="267.00" y1="276" x2="267.00" y2="44" stroke="#1b2534" stroke-width="1" /><text x="257.00" y="308" fill="#94a3b8" font-size="11">8.25</text></g><g><line x1="490.00" y1="276" x2="490.00" y2="44" stroke="#1b2534" stroke-width="1" /><text x="480.00" y="308" fill="#94a3b8" font-size="11">15.5</text></g><g><line x1="713.00" y1="276" x2="713.00" y2="44" stroke="#1b2534" stroke-width="1" /><text x="703.00" y="308" fill="#94a3b8" font-size="11">22.75</text></g><g><line x1="936.00" y1="276" x2="936.00" y2="44" stroke="#1b2534" stroke-width="1" /><text x="926.00" y="308" fill="#94a3b8" font-size="11">30</text></g>
  <rect x="44" y="44" width="892" height="232" fill="none" stroke="#334155" stroke-width="1" />
  <polyline fill="none" stroke="#60a5fa" stroke-width="2.2" points="44.00,276.00 74.76,276.00 105.52,276.00 136.28,276.00 167.03,276.00 197.79,276.00 228.55,276.00 259.31,276.00 290.07,276.00 320.83,276.00 351.59,276.00 382.34,276.00 413.10,276.00 443.86,276.00 474.62,276.00 505.38,276.00 536.14,276.00 566.90,276.00 597.66,276.00 628.41,276.00 659.17,276.00 689.93,276.00 720.69,276.00 751.45,276.00 782.21,276.00 812.97,276.00 843.72,276.00 874.48,276.00 905.24,276.00 936.00,276.00" /><polyline fill="none" stroke="#34d399" stroke-width="2.2" points="44.00,275.98 74.76,276.00 105.52,276.00 136.28,276.00 167.03,276.00 197.79,276.00 228.55,276.00 259.31,276.00 290.07,276.00 320.83,276.00 351.59,276.00 382.34,276.00 413.10,276.00 443.86,276.00 474.62,276.00 505.38,276.00 536.14,276.00 566.90,276.00 597.66,276.00 628.41,276.00 659.17,276.00 689.93,276.00 720.69,276.00 751.45,276.00 782.21,276.00 812.97,276.00 843.72,276.00 874.48,276.00 905.24,276.00 936.00,276.00" /><polyline fill="none" stroke="#f59e0b" stroke-width="2.2" points="44.00,44.00 74.76,266.66 105.52,271.34 136.28,271.99 167.03,270.10 197.79,266.52 228.55,266.63 259.31,267.47 290.07,267.78 320.83,268.47 351.59,268.96 382.34,269.66 413.10,270.90 443.86,273.48 474.62,274.15 505.38,268.54 536.14,259.58 566.90,272.65 597.66,269.34 628.41,267.69 659.17,267.70 689.93,267.93 720.69,267.94 751.45,268.76 782.21,269.11 812.97,269.45 843.72,269.66 874.48,270.25 905.24,270.44 936.00,270.59" />
  <g><rect x="760" y="15" width="12" height="12" fill="#60a5fa" rx="2" /><text x="780" y="24" fill="#cbd5e1" font-size="12">supervised_loss</text></g><g><rect x="760" y="33" width="12" height="12" fill="#34d399" rx="2" /><text x="780" y="42" fill="#cbd5e1" font-size="12">wave_residual_loss</text></g><g><rect x="760" y="51" width="12" height="12" fill="#f59e0b" rx="2" /><text x="780" y="60" fill="#cbd5e1" font-size="12">thermal_residual_loss</text></g>
</svg>
