<svg xmlns="http://www.w3.org/2000/svg" width="980" height="320" viewBox="0 0 980 320">
  <rect width="980" height="320" rx="18" fill="#111827" />
  <text x="44" y="24" fill="#f8fafc" font-size="18">Normalized Loss Components</text>
  <g><line x1="44" y1="44.00" x2="936" y2="44.00" stroke="#243042" stroke-width="1" /><text x="8" y="48.00" fill="#94a3b8" font-size="11">18.59</text></g><g><line x1="44" y1="102.00" x2="936" y2="102.00" stroke="#243042" stroke-width="1" /><text x="8" y="106.00" fill="#94a3b8" font-size="11">13.96</text></g><g><line x1="44" y1="160.00" x2="936" y2="160.00" stroke="#243042" stroke-width="1" /><text x="8" y="164.00" fill="#94a3b8" font-size="11">9.326</text></g><g><line x1="44" y1="218.00" x2="936" y2="218.00" stroke="#243042" stroke-width="1" /><text x="8" y="222.00" fill="#94a3b8" font-size="11">4.693</text></g><g><line x1="44" y1="276.00" x2="936" y2="276.00" stroke="#243042" stroke-width="1" /><text x="8" y="280.00" fill="#94a3b8" font-size="11">0.06105</text></g>
  <g><line x1="44.00" y1="276" x2="44.00" y2="44" stroke="#1b2534" stroke-width="1" /><text x="34.00" y="308" fill="#94a3b8" font-size="11">1</text></g><g><line x1="267.00" y1="276" x2="267.00" y2="44" stroke="#1b2534" stroke-width="1" /><text x="257.00" y="308" fill="#94a3b8" font-size="11">8.25</text></g><g><line x1="490.00" y1="276" x2="490.00" y2="44" stroke="#1b2534" stroke-width="1" /><text x="480.00" y="308" fill="#94a3b8" font-size="11">15.5</text></g><g><line x1="713.00" y1="276" x2="713.00" y2="44" stroke="#1b2534" stroke-width="1" /><text x="703.00" y="308" fill="#94a3b8" font-size="11">22.75</text></g><g><line x1="936.00" y1="276" x2="936.00" y2="44" stroke="#1b2534" stroke-width="1" /><text x="926.00" y="308" fill="#94a3b8" font-size="11">30</text></g>
  <rect x="44" y="44" width="892" height="232" fill="none" stroke="#334155" stroke-width="1" />
  <polyline fill="none" stroke="#60a5fa" stroke-width="2.2" points="44.00,262.95 74.76,263.15 105.52,263.35 136.28,263.50 167.03,263.67 197.79,263.84 228.55,263.96 259.31,264.08 290.07,264.20 320.83,264.32 351.59,264.45 382.34,264.60 413.10,264.75 443.86,264.92 474.62,265.12 505.38,265.39 536.14,265.53 566.90,265.60 597.66,265.77 628.41,265.89 659.17,265.95 689.93,266.01 720.69,266.10 751.45,266.18 782.21,266.25 812.97,266.32 843.72,266.39 874.48,266.46 905.24,266.52 936.00,266.58" /><polyline fill="none" stroke="#34d399" stroke-width="2.2" points="44.00,44.00 74.76,256.12 105.52,267.45 136.28,271.74 167.03,272.94 197.79,273.15 228.55,274.04 259.31,275.02 290.07,275.71 320.83,275.80 351.59,275.78 382.34,275.48 413.10,274.86 443.86,273.85 474.62,273.44 505.38,272.79 536.14,271.47 566.90,274.33 597.66,274.53 628.41,272.75 659.17,275.59 689.93,275.98 720.69,276.00 751.45,275.87 782.21,275.81 812.97,275.86 843.72,276.00 874.48,275.86 905.24,275.90 936.00,275.95" /><polyline fill="none" stroke="#f59e0b" stroke-width="2.2" points="44.00,89.38 74.76,269.22 105.52,273.00 136.28,273.53 167.03,272.00 197.79,269.11 228.55,269.19 259.31,269.87 290.07,270.13 320.83,270.68 351.59,271.08 382.34,271.65 413.10,272.65 443.86,274.73 474.62,275.27 505.38,270.74 536.14,263.50 566.90,274.06 597.66,271.38 628.41,270.05 659.17,270.06 689.93,270.25 720.69,270.25 751.45,270.92 782.21,271.20 812.97,271.47 843.72,271.65 874.48,272.12 905.24,272.27 936.00,272.39" />
  <g><rect x="760" y="15" width="12" height="12" fill="#60a5fa" rx="2" /><text x="780" y="24" fill="#cbd5e1" font-size="12">normalized_supervised_loss</text></g><g><rect x="760" y="33" width="12" height="12" fill="#34d399" rx="2" /><text x="780" y="42" fill="#cbd5e1" font-size="12">normalized_wave_residual_loss</text></g><g><rect x="760" y="51" width="12" height="12" fill="#f59e0b" rx="2" /><text x="780" y="60" fill="#cbd5e1" font-size="12">normalized_thermal_residual_loss</text></g>
</svg>
