<svg xmlns="http://www.w3.org/2000/svg" width="980" height="320" viewBox="0 0 980 320">
  <rect width="980" height="320" rx="18" fill="#111827" />
  <text x="44" y="24" fill="#f8fafc" font-size="18">Learning Rate And Gradient Norm</text>
  <g><line x1="44" y1="44.00" x2="936" y2="44.00" stroke="#243042" stroke-width="1" /><text x="8" y="48.00" fill="#94a3b8" font-size="11">139.5</text></g><g><line x1="44" y1="102.00" x2="936" y2="102.00" stroke="#243042" stroke-width="1" /><text x="8" y="106.00" fill="#94a3b8" font-size="11">104.6</text></g><g><line x1="44" y1="160.00" x2="936" y2="160.00" stroke="#243042" stroke-width="1" /><text x="8" y="164.00" fill="#94a3b8" font-size="11">69.76</text></g><g><line x1="44" y1="218.00" x2="936" y2="218.00" stroke="#243042" stroke-width="1" /><text x="8" y="222.00" fill="#94a3b8" font-size="11">34.88</text></g><g><line x1="44" y1="276.00" x2="936" y2="276.00" stroke="#243042" stroke-width="1" /><text x="8" y="280.00" fill="#94a3b8" font-size="11">0.0005</text></g>
  <g><line x1="44.00" y1="276" x2="44.00" y2="44" stroke="#1b2534" stroke-width="1" /><text x="34.00" y="308" fill="#94a3b8" font-size="11">1</text></g><g><line x1="267.00" y1="276" x2="267.00" y2="44" stroke="#1b2534" stroke-width="1" /><text x="257.00" y="308" fill="#94a3b8" font-size="11">8.25</text></g><g><line x1="490.00" y1="276" x2="490.00" y2="44" stroke="#1b2534" stroke-width="1" /><text x="480.00" y="308" fill="#94a3b8" font-size="11">15.5</text></g><g><line x1="713.00" y1="276" x2="713.00" y2="44" stroke="#1b2534" stroke-width="1" /><text x="703.00" y="308" fill="#94a3b8" font-size="11">22.75</text></g><g><line x1="936.00" y1="276" x2="936.00" y2="44" stroke="#1b2534" stroke-width="1" /><text x="926.00" y="308" fill="#94a3b8" font-size="11">30</text></g>
  <rect x="44" y="44" width="892" height="232" fill="none" stroke="#334155" stroke-width="1" />
  <polyline fill="none" stroke="#a78bfa" stroke-width="2.2" points="44.00,276.00 74.76,276.00 105.52,276.00 136.28,276.00 167.03,276.00 197.79,276.00 228.55,276.00 259.31,276.00 290.07,276.00 320.83,276.00 351.59,276.00 382.34,276.00 413.10,276.00 443.86,276.00 474.62,276.00 505.38,276.00 536.14,276.00 566.90,276.00 597.66,276.00 628.41,276.00 659.17,276.00 689.93,276.00 720.69,276.00 751.45,276.00 782.21,276.00 812.97,276.00 843.72,276.00 874.48,276.00 905.24,276.00 936.00,276.00" /><polyline fill="none" stroke="#f472b6" stroke-width="2.2" points="44.00,44.00 74.76,226.95 105.52,241.96 136.28,250.05 167.03,251.32 197.79,243.29 228.55,246.25 259.31,249.15 290.07,251.87 320.83,253.97 351.59,255.45 382.34,256.46 413.10,257.69 443.86,259.89 474.62,261.98 505.38,254.95 536.14,242.11 566.90,261.62 597.66,256.74 628.41,251.10 659.17,253.20 689.93,254.96 720.69,255.86 751.45,256.41 782.21,257.17 812.97,257.98 843.72,258.59 874.48,259.32 905.24,260.01 936.00,260.71" />
  <g><rect x="760" y="15" width="12" height="12" fill="#a78bfa" rx="2" /><text x="780" y="24" fill="#cbd5e1" font-size="12">learning_rate</text></g><g><rect x="760" y="33" width="12" height="12" fill="#f472b6" rx="2" /><text x="780" y="42" fill="#cbd5e1" font-size="12">grad_norm</text></g>
</svg>
