<svg xmlns="http://www.w3.org/2000/svg" width="980" height="320" viewBox="0 0 980 320">
  <rect width="980" height="320" rx="18" fill="#111827" />
  <text x="44" y="24" fill="#f8fafc" font-size="18">Total Loss</text>
  <g><line x1="44" y1="44.00" x2="936" y2="44.00" stroke="#243042" stroke-width="1" /><text x="8" y="48.00" fill="#94a3b8" font-size="11">3.955</text></g><g><line x1="44" y1="102.00" x2="936" y2="102.00" stroke="#243042" stroke-width="1" /><text x="8" y="106.00" fill="#94a3b8" font-size="11">3.237</text></g><g><line x1="44" y1="160.00" x2="936" y2="160.00" stroke="#243042" stroke-width="1" /><text x="8" y="164.00" fill="#94a3b8" font-size="11">2.519</text></g><g><line x1="44" y1="218.00" x2="936" y2="218.00" stroke="#243042" stroke-width="1" /><text x="8" y="222.00" fill="#94a3b8" font-size="11">1.8</text></g><g><line x1="44" y1="276.00" x2="936" y2="276.00" stroke="#243042" stroke-width="1" /><text x="8" y="280.00" fill="#94a3b8" font-size="11">1.082</text></g>
  <g><line x1="44.00" y1="276" x2="44.00" y2="44" stroke="#1b2534" stroke-width="1" /><text x="34.00" y="308" fill="#94a3b8" font-size="11">1</text></g><g><line x1="267.00" y1="276" x2="267.00" y2="44" stroke="#1b2534" stroke-width="1" /><text x="257.00" y="308" fill="#94a3b8" font-size="11">8.25</text></g><g><line x1="490.00" y1="276" x2="490.00" y2="44" stroke="#1b2534" stroke-width="1" /><text x="480.00" y="308" fill="#94a3b8" font-size="11">15.5</text></g><g><line x1="713.00" y1="276" x2="713.00" y2="44" stroke="#1b2534" stroke-width="1" /><text x="703.00" y="308" fill="#94a3b8" font-size="11">22.75</text></g><g><line x1="936.00" y1="276" x2="936.00" y2="44" stroke="#1b2534" stroke-width="1" /><text x="926.00" y="308" fill="#94a3b8" font-size="11">30</text></g>
  <rect x="44" y="44" width="892" height="232" fill="none" stroke="#334155" stroke-width="1" />
  <polyline fill="none" stroke="#60a5fa" stroke-width="2.2" points="44.00,44.00 74.76,240.11 105.52,249.89 136.28,253.83 167.03,255.19 197.79,255.53 228.55,256.89 259.31,258.50 290.07,259.78 320.83,260.81 351.59,261.78 382.34,262.69 413.10,263.60 443.86,264.70 474.62,265.93 505.38,265.81 536.14,263.49 566.90,269.23 597.66,269.57 628.41,268.74 659.17,270.96 689.93,271.70 720.69,272.25 751.45,272.93 782.21,273.45 812.97,274.01 843.72,274.62 874.48,275.10 905.24,275.55 936.00,276.00" /><polyline fill="none" stroke="#f59e0b" stroke-width="2.2" points="44.00,239.45 74.76,248.18 105.52,252.96 136.28,256.06 167.03,254.81 197.79,257.88 228.55,257.78 259.31,260.68 290.07,260.67 320.83,262.43 351.59,263.28 382.34,263.65 413.10,264.67 443.86,265.69 474.62,267.09 505.38,269.80 536.14,266.25 566.90,270.39 597.66,271.78 628.41,272.51 659.17,271.51 689.93,271.07 720.69,271.92 751.45,272.82 782.21,273.02 812.97,273.93 843.72,274.53 874.48,275.15 905.24,275.39 936.00,275.94" />
  <g><rect x="760" y="15" width="12" height="12" fill="#60a5fa" rx="2" /><text x="780" y="24" fill="#cbd5e1" font-size="12">train_total_loss</text></g><g><rect x="760" y="33" width="12" height="12" fill="#f59e0b" rx="2" /><text x="780" y="42" fill="#cbd5e1" font-size="12">val_total_loss</text></g>
</svg>
